<?xml version="1.0" standalone="no"?>
<!DOCTYPE svg PUBLIC "-//W3C//DTD SVG 1.1//EN" "http://www.w3.org/Graphics/SVG/1.1/DTD/svg11.dtd">
<svg width="3000px" height="3000px" version="1.1" xmlns="http://www.w3.org/2000/svg" xmlns:xlink="http://www.w3.org/1999/xlink">
<g id="ideograms">
<path d="M 1500.000,350.000 A1150.000,1150.000 0.000 0,1 1956.269,444.387 L 1976.107,398.491 A1200.000,1200.000 0.000 0,0 1500.000,300.000 Z " style="stroke-width: 2.0; stroke: rgb(170,170,170); fill: rgb(153,102,0); " />
<text x="1736.6" y="400.2" style="fill: rgb(0,0,0); font-size: 28.6px; text-anchor: start" transform="rotate(371.7,1736.6,400.2)">chr1</text>
<path d="M 1500.000,350.000 A1150.000,1150.000 0.000 0,1 1956.269,444.387 L 1976.107,398.491 A1200.000,1200.000 0.000 0,0 1500.000,300.000 Z " style="stroke-width: 2.0; stroke: rgb(170,170,170); fill: none; " />
<path d="M 2009.149,468.852 A1150.000,1150.000 0.000 0,1 2369.058,746.847 L 2406.843,714.102 A1200.000,1200.000 0.000 0,0 2031.286,424.019 Z " style="stroke-width: 2.0; stroke: rgb(170,170,170); fill: rgb(102,102,0); " />
<text x="2194.7" y="615.1" style="fill: rgb(0,0,0); font-size: 28.6px; text-anchor: start" transform="rotate(397.7,2194.7,615.1)">chr2</text>
<path d="M 2009.149,468.852 A1150.000,1150.000 0.000 0,1 2369.058,746.847 L 2406.843,714.102 A1200.000,1200.000 0.000 0,0 2031.286,424.019 Z " style="stroke-width: 2.0; stroke: rgb(170,170,170); fill: none; " />
<path d="M 2406.089,791.831 A1150.000,1150.000 0.000 0,1 2584.447,1117.280 L 2631.597,1100.640 A1200.000,1200.000 0.000 0,0 2445.484,761.041 Z " style="stroke-width: 2.0; stroke: rgb(170,170,170); fill: rgb(153,153,30); " />
<text x="2490.8" y="967.1" style="fill: rgb(0,0,0); font-size: 28.6px; text-anchor: start" transform="rotate(421.3,2490.8,967.1)">chr3</text>
<path d="M 2406.089,791.831 A1150.000,1150.000 0.000 0,1 2584.447,1117.280 L 2631.597,1100.640 A1200.000,1200.000 0.000 0,0 2445.484,761.041 Z " style="stroke-width: 2.0; stroke: rgb(170,170,170); fill: none; " />
<path d="M 2602.440,1172.697 A1150.000,1150.000 0.000 0,1 2649.661,1527.926 L 2699.646,1529.140 A1200.000,1200.000 0.000 0,0 2650.372,1158.467 Z " style="stroke-width: 2.0; stroke: rgb(170,170,170); fill: rgb(204,0,0); " />
<text x="2616.3" y="1360.5" style="fill: rgb(0,0,0); font-size: 28.6px; text-anchor: start" transform="rotate(442.4,2616.3,1360.5)">chr4</text>
<path d="M 2602.440,1172.697 A1150.000,1150.000 0.000 0,1 2649.661,1527.926 L 2699.646,1529.140 A1200.000,1200.000 0.000 0,0 2650.372,1158.467 Z " style="stroke-width: 2.0; stroke: rgb(170,170,170); fill: none; " />
<path d="M 2646.771,1586.119 A1150.000,1150.000 0.000 0,1 2571.725,1917.019 L 2618.322,1935.150 A1200.000,1200.000 0.000 0,0 2696.630,1589.864 Z " style="stroke-width: 2.0; stroke: rgb(170,170,170); fill: rgb(255,0,0); " />
<text x="2617.5" y="1762.7" style="fill: rgb(0,0,0); font-size: 28.6px; text-anchor: start" transform="rotate(-77.2,2617.5,1762.7)">chr5</text>
<path d="M 2646.771,1586.119 A1150.000,1150.000 0.000 0,1 2571.725,1917.019 L 2618.322,1935.150 A1200.000,1200.000 0.000 0,0 2696.630,1589.864 Z " style="stroke-width: 2.0; stroke: rgb(170,170,170); fill: none; " />
<path d="M 2549.228,1970.766 A1150.000,1150.000 0.000 0,1 2378.204,2242.467 L 2416.387,2274.748 A1200.000,1200.000 0.000 0,0 2594.847,1991.234 Z " style="stroke-width: 2.0; stroke: rgb(170,170,170); fill: rgb(255,0,204); " />
<text x="2466.7" y="2119.2" style="fill: rgb(0,0,0); font-size: 28.6px; text-anchor: start" transform="rotate(-57.8,2466.7,2119.2)">chr6</text>
<path d="M 2549.228,1970.766 A1150.000,1150.000 0.000 0,1 2378.204,2242.467 L 2416.387,2274.748 A1200.000,1200.000 0.000 0,0 2594.847,1991.234 Z " style="stroke-width: 2.0; stroke: rgb(170,170,170); fill: none; " />
<path d="M 2339.472,2285.995 A1150.000,1150.000 0.000 0,1 2108.723,2475.683 L 2135.189,2518.104 A1200.000,1200.000 0.000 0,0 2375.970,2320.168 Z " style="stroke-width: 2.0; stroke: rgb(170,170,170); fill: rgb(255,204,204); " />
<text x="2222.0" y="2392.5" style="fill: rgb(0,0,0); font-size: 28.6px; text-anchor: start" transform="rotate(-39.4,2222.0,2392.5)">chr7</text>
<path d="M 2339.472,2285.995 A1150.000,1150.000 0.000 0,1 2108.723,2475.683 L 2135.189,2518.104 A1200.000,1200.000 0.000 0,0 2375.970,2320.168 Z " style="stroke-width: 2.0; stroke: rgb(170,170,170); fill: none; " />
<path d="M 2058.524,2505.262 A1150.000,1150.000 0.000 0,1 1804.036,2609.082 L 1817.255,2657.303 A1200.000,1200.000 0.000 0,0 2082.807,2548.969 Z " style="stroke-width: 2.0; stroke: rgb(170,170,170); fill: rgb(255,153,0); " />
<text x="1925.3" y="2566.3" style="fill: rgb(0,0,0); font-size: 28.6px; text-anchor: start" transform="rotate(-22.2,1925.3,2566.3)">chr8</text>
<path d="M 2058.524,2505.262 A1150.000,1150.000 0.000 0,1 1804.036,2609.082 L 1817.255,2657.303 A1200.000,1200.000 0.000 0,0 2082.807,2548.969 Z " style="stroke-width: 2.0; stroke: rgb(170,170,170); fill: none; " />
<path d="M 1747.472,2623.057 A1150.000,1150.000 0.000 0,1 1483.610,2649.883 L 1482.898,2699.878 A1200.000,1200.000 0.000 0,0 1758.232,2671.886 Z " style="stroke-width: 2.0; stroke: rgb(170,170,170); fill: rgb(255,204,0); " />
<text x="1607.1" y="2643.0" style="fill: rgb(0,0,0); font-size: 28.6px; text-anchor: start" transform="rotate(-5.8,1607.1,2643.0)">chr9</text>
<path d="M 1747.472,2623.057 A1150.000,1150.000 0.000 0,1 1483.610,2649.883 L 1482.898,2699.878 A1200.000,1200.000 0.000 0,0 1758.232,2671.886 Z " style="stroke-width: 2.0; stroke: rgb(170,170,170); fill: none; " />
<path d="M 1425.391,2647.577 A1150.000,1150.000 0.000 0,1 1174.716,2603.037 L 1160.573,2650.995 A1200.000,1200.000 0.000 0,0 1422.147,2697.472 Z " style="stroke-width: 2.0; stroke: rgb(170,170,170); fill: rgb(255,255,0); " />
<text x="1308.1" y="2631.8" style="fill: rgb(0,0,0); font-size: 28.6px; text-anchor: end" transform="rotate(370.1,1308.1,2631.8)">chr10</text>
<path d="M 1425.391,2647.577 A1150.000,1150.000 0.000 0,1 1174.716,2603.037 L 1160.573,2650.995 A1200.000,1200.000 0.000 0,0 1422.147,2697.472 Z " style="stroke-width: 2.0; stroke: rgb(170,170,170); fill: none; " />
<path d="M 1119.266,2585.146 A1150.000,1150.000 0.000 0,1 890.673,2475.305 L 864.181,2517.710 A1200.000,1200.000 0.000 0,0 1102.712,2632.326 Z " style="stroke-width: 2.0; stroke: rgb(170,170,170); fill: rgb(204,255,0); " />
<text x="1011.0" y="2538.6" style="fill: rgb(0,0,0); font-size: 28.6px; text-anchor: end" transform="rotate(385.7,1011.0,2538.6)">chr11</text>
<path d="M 1119.266,2585.146 A1150.000,1150.000 0.000 0,1 890.673,2475.305 L 864.181,2517.710 A1200.000,1200.000 0.000 0,0 1102.712,2632.326 Z " style="stroke-width: 2.0; stroke: rgb(170,170,170); fill: none; " />
<path d="M 842.057,2443.192 A1150.000,1150.000 0.000 0,1 652.788,2277.645 L 615.953,2311.456 A1200.000,1200.000 0.000 0,0 813.451,2484.200 Z " style="stroke-width: 2.0; stroke: rgb(170,170,170); fill: rgb(0,255,0); " />
<text x="751.0" y="2370.0" style="fill: rgb(0,0,0); font-size: 28.6px; text-anchor: end" transform="rotate(401.2,751.0,2370.0)">chr12</text>
<path d="M 842.057,2443.192 A1150.000,1150.000 0.000 0,1 652.788,2277.645 L 615.953,2311.456 A1200.000,1200.000 0.000 0,0 813.451,2484.200 Z " style="stroke-width: 2.0; stroke: rgb(170,170,170); fill: none; " />
<path d="M 614.488,2233.736 A1150.000,1150.000 0.000 0,1 492.675,2054.794 L 448.878,2078.916 A1200.000,1200.000 0.000 0,0 575.988,2265.638 Z " style="stroke-width: 2.0; stroke: rgb(170,170,170); fill: rgb(53,128,0); " />
<text x="556.1" y="2153.5" style="fill: rgb(0,0,0); font-size: 28.6px; text-anchor: end" transform="rotate(415.8,556.1,2153.5)">chr13</text>
<path d="M 614.488,2233.736 A1150.000,1150.000 0.000 0,1 492.675,2054.794 L 448.878,2078.916 A1200.000,1200.000 0.000 0,0 575.988,2265.638 Z " style="stroke-width: 2.0; stroke: rgb(170,170,170); fill: none; " />
<path d="M 465.868,2003.062 A1150.000,1150.000 0.000 0,1 393.851,1814.539 L 345.758,1828.215 A1200.000,1200.000 0.000 0,0 420.906,2024.934 Z " style="stroke-width: 2.0; stroke: rgb(170,170,170); fill: rgb(0,0,204); " />
<text x="430.8" y="1918.1" style="fill: rgb(0,0,0); font-size: 28.6px; text-anchor: end" transform="rotate(429.1,430.8,1918.1)">chr14</text>
<path d="M 465.868,2003.062 A1150.000,1150.000 0.000 0,1 393.851,1814.539 L 345.758,1828.215 A1200.000,1200.000 0.000 0,0 420.906,2024.934 Z " style="stroke-width: 2.0; stroke: rgb(170,170,170); fill: none; " />
<path d="M 379.340,1758.110 A1150.000,1150.000 0.000 0,1 351.970,1567.290 L 302.056,1570.215 A1200.000,1200.000 0.000 0,0 330.616,1769.332 Z " style="stroke-width: 2.0; stroke: rgb(170,170,170); fill: rgb(102,153,255); " />
<text x="364.9" y="1671.9" style="fill: rgb(0,0,0); font-size: 28.6px; text-anchor: end" transform="rotate(441.8,364.9,1671.9)">chr15</text>
<path d="M 379.340,1758.110 A1150.000,1150.000 0.000 0,1 351.970,1567.290 L 302.056,1570.215 A1200.000,1200.000 0.000 0,0 330.616,1769.332 Z " style="stroke-width: 2.0; stroke: rgb(170,170,170); fill: none; " />
<path d="M 350.036,1509.056 A1150.000,1150.000 0.000 0,1 361.255,1339.503 L 311.744,1332.525 A1200.000,1200.000 0.000 0,0 300.037,1509.450 Z " style="stroke-width: 2.0; stroke: rgb(170,170,170); fill: rgb(153,204,255); " />
<text x="376.9" y="1434.6" style="fill: rgb(0,0,0); font-size: 28.6px; text-anchor: end" transform="rotate(-86.2,376.9,1434.6)">chr16</text>
<path d="M 350.036,1509.056 A1150.000,1150.000 0.000 0,1 361.255,1339.503 L 311.744,1332.525 A1200.000,1200.000 0.000 0,0 300.037,1509.450 Z " style="stroke-width: 2.0; stroke: rgb(170,170,170); fill: none; " />
<path d="M 370.845,1282.032 A1150.000,1150.000 0.000 0,1 409.686,1134.329 L 362.281,1118.430 A1200.000,1200.000 0.000 0,0 321.752,1272.556 Z " style="stroke-width: 2.0; stroke: rgb(170,170,170); fill: rgb(0,255,255); " />
<text x="409.8" y="1222.5" style="fill: rgb(0,0,0); font-size: 28.6px; text-anchor: end" transform="rotate(-75.3,409.8,1222.5)">chr17</text>
<path d="M 370.845,1282.032 A1150.000,1150.000 0.000 0,1 409.686,1134.329 L 362.281,1118.430 A1200.000,1200.000 0.000 0,0 321.752,1272.556 Z " style="stroke-width: 2.0; stroke: rgb(170,170,170); fill: none; " />
<path d="M 429.606,1079.574 A1150.000,1150.000 0.000 0,1 491.919,946.580 L 448.090,922.518 A1200.000,1200.000 0.000 0,0 383.068,1061.295 Z " style="stroke-width: 2.0; stroke: rgb(170,170,170); fill: rgb(204,255,255); " />
<text x="477.6" y="1030.7" style="fill: rgb(0,0,0); font-size: 28.6px; text-anchor: end" transform="rotate(-64.9,477.6,1030.7)">chr18</text>
<path d="M 429.606,1079.574 A1150.000,1150.000 0.000 0,1 491.919,946.580 L 448.090,922.518 A1200.000,1200.000 0.000 0,0 383.068,1061.295 Z " style="stroke-width: 2.0; stroke: rgb(170,170,170); fill: none; " />
<path d="M 521.244,896.232 A1150.000,1150.000 0.000 0,1 584.168,804.477 L 544.349,774.237 A1200.000,1200.000 0.000 0,0 478.689,869.981 Z " style="stroke-width: 2.0; stroke: rgb(170,170,170); fill: rgb(153,0,204); " />
<text x="567.2" y="871.0" style="fill: rgb(0,0,0); font-size: 28.6px; text-anchor: end" transform="rotate(-55.6,567.2,871.0)">chr19</text>
<path d="M 521.244,896.232 A1150.000,1150.000 0.000 0,1 584.168,804.477 L 544.349,774.237 A1200.000,1200.000 0.000 0,0 478.689,869.981 Z " style="stroke-width: 2.0; stroke: rgb(170,170,170); fill: none; " />
<path d="M 620.571,758.984 A1150.000,1150.000 0.000 0,1 701.555,672.361 L 666.841,636.377 A1200.000,1200.000 0.000 0,0 582.335,726.766 Z " style="stroke-width: 2.0; stroke: rgb(170,170,170); fill: rgb(204,51,255); " />
<text x="672.2" y="738.2" style="fill: rgb(0,0,0); font-size: 28.6px; text-anchor: end" transform="rotate(-46.9,672.2,738.2)">chr20</text>
<path d="M 620.571,758.984 A1150.000,1150.000 0.000 0,1 701.555,672.361 L 666.841,636.377 A1200.000,1200.000 0.000 0,0 582.335,726.766 Z " style="stroke-width: 2.0; stroke: rgb(170,170,170); fill: none; " />
<path d="M 744.500,632.983 A1150.000,1150.000 0.000 0,1 815.076,576.215 L 785.297,536.050 A1200.000,1200.000 0.000 0,0 711.652,595.286 Z " style="stroke-width: 2.0; stroke: rgb(170,170,170); fill: rgb(204,153,255); " />
<text x="788.0" y="629.0" style="fill: rgb(0,0,0); font-size: 28.6px; text-anchor: end" transform="rotate(-38.8,788.0,629.0)">chr21</text>
<path d="M 744.500,632.983 A1150.000,1150.000 0.000 0,1 815.076,576.215 L 785.297,536.050 A1200.000,1200.000 0.000 0,0 711.652,595.286 Z " style="stroke-width: 2.0; stroke: rgb(170,170,170); fill: none; " />
<path d="M 862.744,542.710 A1150.000,1150.000 0.000 0,1 945.285,492.631 L 921.167,448.833 A1200.000,1200.000 0.000 0,0 835.037,501.088 Z " style="stroke-width: 2.0; stroke: rgb(170,170,170); fill: rgb(102,102,102); " />
<text x="908.9" y="542.8" style="fill: rgb(0,0,0); font-size: 28.6px; text-anchor: end" transform="rotate(-31.2,908.9,542.8)">chr22</text>
<path d="M 862.744,542.710 A1150.000,1150.000 0.000 0,1 945.285,492.631 L 921.167,448.833 A1200.000,1200.000 0.000 0,0 835.037,501.088 Z " style="stroke-width: 2.0; stroke: rgb(170,170,170); fill: none; " />
<path d="M 997.020,465.828 A1150.000,1150.000 0.000 0,1 1273.192,372.588 L 1263.331,323.570 A1200.000,1200.000 0.000 0,0 975.151,420.865 Z " style="stroke-width: 2.0; stroke: rgb(170,170,170); fill: rgb(153,153,153); " />
<text x="1131.8" y="437.0" style="fill: rgb(0,0,0); font-size: 28.6px; text-anchor: end" transform="rotate(-18.7,1131.8,437.0)">chrX</text>
<path d="M 997.020,465.828 A1150.000,1150.000 0.000 0,1 1273.192,372.588 L 1263.331,323.570 A1200.000,1200.000 0.000 0,0 975.151,420.865 Z " style="stroke-width: 2.0; stroke: rgb(170,170,170); fill: none; " />
<path d="M 1330.586,362.547 A1150.000,1150.000 0.000 0,1 1441.753,351.476 L 1439.221,301.540 A1200.000,1200.000 0.000 0,0 1323.220,313.093 Z " style="stroke-width: 2.0; stroke: rgb(170,170,170); fill: rgb(204,204,204); " />
<text x="1379.7" y="381.4" style="fill: rgb(0,0,0); font-size: 28.6px; text-anchor: end" transform="rotate(-5.7,1379.7,381.4)">chrY</text>
<path d="M 1330.586,362.547 A1150.000,1150.000 0.000 0,1 1441.753,351.476 L 1439.221,301.540 A1200.000,1200.000 0.000 0,0 1323.220,313.093 Z " style="stroke-width: 2.0; stroke: rgb(170,170,170); fill: none; " />
</g>
<g id="SV">
<path d="M 1717.2,2154.9 Q 1536.2,1609.2 1716.8,2155.1" style="stroke-width: 7.0; stroke: rgb(0,0,0); fill: none" />
<path d="M 2077.8,1122.9 Q 1614.2,1513.7 1972.4,2002.9" style="stroke-width: 7.0; stroke: rgb(0,0,0); fill: none" />
<path d="M 1754.3,2141.4 Q 1537.2,1608.8 1691.8,2162.8" style="stroke-width: 7.0; stroke: rgb(0,0,0); fill: none" />
<path d="M 2077.9,1122.9 Q 1599.6,1442.5 2115.3,1187.7" style="stroke-width: 7.0; stroke: rgb(0,0,0); fill: none" />
<path d="M 1636.3,823.6 Q 1600.7,1444.5 2144.7,1745.8" style="stroke-width: 7.0; stroke: rgb(0,0,0); fill: none" />
<path d="M 983.2,1042.8 Q 1413.9,1423.8 983.4,1042.6" style="stroke-width: 7.0; stroke: rgb(0,0,0); fill: none" />
<path d="M 2139.1,1240.0 Q 1611.0,1470.0 2183.2,1403.2" style="stroke-width: 7.0; stroke: rgb(0,0,0); fill: none" />
<path d="M 866.5,1226.5 Q 1394.4,1454.4 866.7,1226.1" style="stroke-width: 7.0; stroke: rgb(0,0,0); fill: none" />
<path d="M 1080.0,952.5 Q 1430.0,1408.7 1080.5,952.1" style="stroke-width: 7.0; stroke: rgb(0,0,0); fill: none" />
<path d="M 2124.6,1206.8 Q 1604.8,1452.5 2132.3,1223.7" style="stroke-width: 7.0; stroke: rgb(0,0,0); fill: none" />
<path d="M 1735.4,2148.6 Q 1539.2,1608.1 1735.2,2148.7" style="stroke-width: 7.0; stroke: rgb(0,0,0); fill: none" />
</g>
</svg>
