<?xml version="1.0" standalone="no"?>
<!DOCTYPE svg PUBLIC "-//W3C//DTD SVG 1.1//EN" "http://www.w3.org/Graphics/SVG/1.1/DTD/svg11.dtd">
<svg width="3000px" height="3000px" version="1.1" xmlns="http://www.w3.org/2000/svg" xmlns:xlink="http://www.w3.org/1999/xlink">
<g id="ideograms">
<g id="highlight0">
</g>
<path d="M 1500.000,405.000 A1095.000,1095.000 0.000 0,1 2019.233,535.934 L 2033.458,509.522 A1125.000,1125.000 0.000 0,0 1500.000,375.000 Z " style="stroke-width: 2.0; stroke: rgb(170,170,170); fill: rgb(153,102,0); " />
<text x="1765.3" y="484.1" style="fill: rgb(0,0,0); font-size: 28.6px; text-anchor: start" transform="rotate(374.2,1765.3,484.1)">chr1</text>
<g id="highlight0">
<path d="M 1831.423,456.360 A1095.000,1095.000 0.000 0,1 1831.423,456.360 L 1840.503,427.767 A1125.000,1125.000 0.000 0,0 1840.503,427.767 Z " style="stroke: none;  fill: rgb(247,42,66); " />
<path d="M 1934.230,494.779 A1095.000,1095.000 0.000 0,1 1934.230,494.779 L 1946.127,467.239 A1125.000,1125.000 0.000 0,0 1946.127,467.239 Z " style="stroke: none;  fill: rgb(247,42,66); " />
<path d="M 1987.264,519.389 A1095.000,1095.000 0.000 0,1 1987.264,519.389 L 2000.614,492.523 A1125.000,1125.000 0.000 0,0 2000.614,492.523 Z " style="stroke: none;  fill: rgb(247,42,66); " />
</g>
<path d="M 1500.000,405.000 A1095.000,1095.000 0.000 0,1 2019.233,535.934 L 2033.458,509.522 A1125.000,1125.000 0.000 0,0 1500.000,375.000 Z " style="stroke-width: 2.0; stroke: rgb(170,170,170); fill: none; " />
<g id="highlight0">
</g>
<path d="M 2025.138,539.138 A1095.000,1095.000 0.000 0,1 2410.745,892.079 L 2435.697,875.423 A1125.000,1125.000 0.000 0,0 2039.526,512.814 Z " style="stroke-width: 2.0; stroke: rgb(170,170,170); fill: rgb(102,102,0); " />
<text x="2215.4" y="731.5" style="fill: rgb(0,0,0); font-size: 28.6px; text-anchor: start" transform="rotate(402.5,2215.4,731.5)">chr2</text>
<g id="highlight0">
<path d="M 2261.345,712.994 A1095.000,1095.000 0.000 0,1 2261.345,712.994 L 2282.204,691.432 A1125.000,1125.000 0.000 0,0 2282.204,691.432 Z " style="stroke: none;  fill: rgb(247,42,66); " />
<path d="M 2311.989,765.358 A1095.000,1095.000 0.000 0,1 2311.989,765.358 L 2334.235,745.231 A1125.000,1125.000 0.000 0,0 2334.235,745.231 Z " style="stroke: none;  fill: rgb(247,42,66); " />
</g>
<path d="M 2025.138,539.138 A1095.000,1095.000 0.000 0,1 2410.745,892.079 L 2435.697,875.423 A1125.000,1125.000 0.000 0,0 2039.526,512.814 Z " style="stroke-width: 2.0; stroke: rgb(170,170,170); fill: none; " />
<g id="highlight0">
</g>
<path d="M 2414.458,897.679 A1095.000,1095.000 0.000 0,1 2575.306,1293.260 L 2604.767,1287.596 A1125.000,1125.000 0.000 0,0 2439.512,881.177 Z " style="stroke-width: 2.0; stroke: rgb(170,170,170); fill: rgb(153,153,30); " />
<text x="2476.0" y="1112.7" style="fill: rgb(0,0,0); font-size: 28.6px; text-anchor: start" transform="rotate(427.9,2476.0,1112.7)">chr3</text>
<g id="highlight0">
<path d="M 2504.697,1064.560 A1095.000,1095.000 0.000 0,1 2504.697,1064.560 L 2532.223,1052.630 A1125.000,1125.000 0.000 0,0 2532.223,1052.630 Z " style="stroke: none;  fill: rgb(247,42,66); " />
<path d="M 2568.562,1260.835 A1095.000,1095.000 0.000 0,1 2568.562,1260.835 L 2597.838,1254.283 A1125.000,1125.000 0.000 0,0 2597.838,1254.283 Z " style="stroke: none;  fill: rgb(247,42,66); " />
</g>
<path d="M 2414.458,897.679 A1095.000,1095.000 0.000 0,1 2575.306,1293.260 L 2604.767,1287.596 A1125.000,1125.000 0.000 0,0 2439.512,881.177 Z " style="stroke-width: 2.0; stroke: rgb(170,170,170); fill: none; " />
<g id="highlight0">
</g>
<path d="M 2576.555,1299.862 A1095.000,1095.000 0.000 0,1 2574.231,1712.258 L 2603.662,1718.074 A1125.000,1125.000 0.000 0,0 2606.049,1294.379 Z " style="stroke-width: 2.0; stroke: rgb(170,170,170); fill: rgb(204,0,0); " />
<text x="2572.9" y="1515.1" style="fill: rgb(0,0,0); font-size: 28.6px; text-anchor: start" transform="rotate(-89.7,2572.9,1515.1)">chr4</text>
<g id="highlight0">
<path d="M 2576.930,1301.894 A1095.000,1095.000 0.000 0,1 2576.930,1301.894 L 2606.435,1296.466 A1125.000,1125.000 0.000 0,0 2606.435,1296.466 Z " style="stroke: none;  fill: rgb(247,42,66); " />
<path d="M 2582.273,1333.535 A1095.000,1095.000 0.000 0,1 2582.273,1333.535 L 2611.924,1328.974 A1125.000,1125.000 0.000 0,0 2611.924,1328.974 Z " style="stroke: none;  fill: rgb(247,42,66); " />
<path d="M 2594.481,1466.288 A1095.000,1095.000 0.000 0,1 2594.481,1466.288 L 2624.467,1465.365 A1125.000,1125.000 0.000 0,0 2624.467,1465.365 Z " style="stroke: none;  fill: rgb(247,42,66); " />
<path d="M 2594.990,1495.425 A1095.000,1095.000 0.000 0,1 2594.990,1495.425 L 2624.990,1495.300 A1125.000,1125.000 0.000 0,0 2624.990,1495.300 Z " style="stroke: none;  fill: rgb(247,42,66); " />
</g>
<path d="M 2576.555,1299.862 A1095.000,1095.000 0.000 0,1 2574.231,1712.258 L 2603.662,1718.074 A1125.000,1125.000 0.000 0,0 2606.049,1294.379 Z " style="stroke-width: 2.0; stroke: rgb(170,170,170); fill: none; " />
<g id="highlight0">
</g>
<path d="M 2572.908,1718.846 A1095.000,1095.000 0.000 0,1 2427.858,2081.468 L 2453.278,2097.399 A1125.000,1125.000 0.000 0,0 2602.303,1724.842 Z " style="stroke-width: 2.0; stroke: rgb(170,170,170); fill: rgb(255,0,0); " />
<text x="2492.9" y="1906.9" style="fill: rgb(0,0,0); font-size: 28.6px; text-anchor: start" transform="rotate(-68.2,2492.9,1906.9)">chr5</text>
<g id="highlight0">
</g>
<path d="M 2572.908,1718.846 A1095.000,1095.000 0.000 0,1 2427.858,2081.468 L 2453.278,2097.399 A1125.000,1125.000 0.000 0,0 2602.303,1724.842 Z " style="stroke-width: 2.0; stroke: rgb(170,170,170); fill: none; " />
<g id="highlight0">
</g>
<path d="M 2424.272,2087.150 A1095.000,1095.000 0.000 0,1 2176.273,2361.208 L 2194.801,2384.803 A1125.000,1125.000 0.000 0,0 2449.595,2103.237 Z " style="stroke-width: 2.0; stroke: rgb(170,170,170); fill: rgb(255,0,204); " />
<text x="2289.5" y="2226.6" style="fill: rgb(0,0,0); font-size: 28.6px; text-anchor: start" transform="rotate(-47.9,2289.5,2226.6)">chr6</text>
<g id="highlight0">
<path d="M 2384.345,2145.723 A1095.000,1095.000 0.000 0,1 2384.345,2145.723 L 2408.574,2163.415 A1125.000,1125.000 0.000 0,0 2408.574,2163.415 Z " style="stroke: none;  fill: rgb(247,42,66); " />
</g>
<path d="M 2424.272,2087.150 A1095.000,1095.000 0.000 0,1 2176.273,2361.208 L 2194.801,2384.803 A1125.000,1125.000 0.000 0,0 2449.595,2103.237 Z " style="stroke-width: 2.0; stroke: rgb(170,170,170); fill: none; " />
<g id="highlight0">
</g>
<path d="M 2170.976,2365.341 A1095.000,1095.000 0.000 0,1 1869.424,2530.801 L 1879.545,2559.042 A1125.000,1125.000 0.000 0,0 2189.359,2389.049 Z " style="stroke-width: 2.0; stroke: rgb(170,170,170); fill: rgb(255,204,204); " />
<text x="2008.2" y="2445.0" style="fill: rgb(0,0,0); font-size: 28.6px; text-anchor: start" transform="rotate(-28.8,2008.2,2445.0)">chr7</text>
<g id="highlight0">
<path d="M 2130.322,2395.387 A1095.000,1095.000 0.000 0,1 2130.322,2395.387 L 2147.591,2419.919 A1125.000,1125.000 0.000 0,0 2147.591,2419.919 Z " style="stroke: none;  fill: rgb(247,42,66); " />
</g>
<path d="M 2170.976,2365.341 A1095.000,1095.000 0.000 0,1 1869.424,2530.801 L 1879.545,2559.042 A1125.000,1125.000 0.000 0,0 2189.359,2389.049 Z " style="stroke-width: 2.0; stroke: rgb(170,170,170); fill: none; " />
<g id="highlight0">
</g>
<path d="M 1863.092,2533.048 A1095.000,1095.000 0.000 0,1 1552.411,2593.745 L 1553.847,2623.711 A1125.000,1125.000 0.000 0,0 1873.040,2561.351 Z " style="stroke-width: 2.0; stroke: rgb(170,170,170); fill: rgb(255,153,0); " />
<text x="1696.9" y="2554.8" style="fill: rgb(0,0,0); font-size: 28.6px; text-anchor: start" transform="rotate(-11.1,1696.9,2554.8)">chr8</text>
<g id="highlight0">
</g>
<path d="M 1863.092,2533.048 A1095.000,1095.000 0.000 0,1 1552.411,2593.745 L 1553.847,2623.711 A1125.000,1125.000 0.000 0,0 1873.040,2561.351 Z " style="stroke-width: 2.0; stroke: rgb(170,170,170); fill: none; " />
<g id="highlight0">
</g>
<path d="M 1545.699,2594.046 A1095.000,1095.000 0.000 0,1 1241.682,2564.094 L 1234.604,2593.248 A1125.000,1125.000 0.000 0,0 1546.951,2624.020 Z " style="stroke-width: 2.0; stroke: rgb(170,170,170); fill: rgb(255,204,0); " />
<text x="1403.8" y="2568.7" style="fill: rgb(0,0,0); font-size: 28.6px; text-anchor: end" transform="rotate(365.6,1403.8,2568.7)">chr9</text>
<g id="highlight0">
</g>
<path d="M 1545.699,2594.046 A1095.000,1095.000 0.000 0,1 1241.682,2564.094 L 1234.604,2593.248 A1125.000,1125.000 0.000 0,0 1546.951,2624.020 Z " style="stroke-width: 2.0; stroke: rgb(170,170,170); fill: none; " />
<g id="highlight0">
</g>
<path d="M 1235.157,2562.489 A1095.000,1095.000 0.000 0,1 962.648,2454.085 L 947.926,2480.224 A1125.000,1125.000 0.000 0,0 1227.901,2591.599 Z " style="stroke-width: 2.0; stroke: rgb(170,170,170); fill: rgb(255,255,0); " />
<text x="1111.8" y="2500.3" style="fill: rgb(0,0,0); font-size: 28.6px; text-anchor: end" transform="rotate(381.7,1111.8,2500.3)">chr10</text>
<g id="highlight0">
<path d="M 989.323,2468.625 A1095.000,1095.000 0.000 0,1 989.323,2468.625 L 975.332,2495.163 A1125.000,1125.000 0.000 0,0 975.332,2495.163 Z " style="stroke: none;  fill: rgb(247,42,66); " />
</g>
<path d="M 1235.157,2562.489 A1095.000,1095.000 0.000 0,1 962.648,2454.085 L 947.926,2480.224 A1125.000,1125.000 0.000 0,0 1227.901,2591.599 Z " style="stroke-width: 2.0; stroke: rgb(170,170,170); fill: none; " />
<g id="highlight0">
</g>
<path d="M 956.804,2450.770 A1095.000,1095.000 0.000 0,1 724.740,2273.303 L 703.500,2294.489 A1125.000,1125.000 0.000 0,0 941.922,2476.818 Z " style="stroke-width: 2.0; stroke: rgb(170,170,170); fill: rgb(204,255,0); " />
<text x="855.4" y="2357.8" style="fill: rgb(0,0,0); font-size: 28.6px; text-anchor: end" transform="rotate(397.4,855.4,2357.8)">chr11</text>
<g id="highlight0">
<path d="M 807.512,2348.225 A1095.000,1095.000 0.000 0,1 807.512,2348.225 L 788.540,2371.464 A1125.000,1125.000 0.000 0,0 788.540,2371.464 Z " style="stroke: none;  fill: rgb(247,42,66); " />
<path d="M 726.645,2275.208 A1095.000,1095.000 0.000 0,1 726.645,2275.208 L 705.457,2296.446 A1125.000,1125.000 0.000 0,0 705.457,2296.446 Z " style="stroke: none;  fill: rgb(247,42,66); " />
</g>
<path d="M 956.804,2450.770 A1095.000,1095.000 0.000 0,1 724.740,2273.303 L 703.500,2294.489 A1125.000,1125.000 0.000 0,0 941.922,2476.818 Z " style="stroke-width: 2.0; stroke: rgb(170,170,170); fill: none; " />
<g id="highlight0">
</g>
<path d="M 720.010,2268.531 A1095.000,1095.000 0.000 0,1 545.787,2037.124 L 519.644,2051.840 A1125.000,1125.000 0.000 0,0 698.640,2289.587 Z " style="stroke-width: 2.0; stroke: rgb(170,170,170); fill: rgb(0,255,0); " />
<text x="648.3" y="2152.6" style="fill: rgb(0,0,0); font-size: 28.6px; text-anchor: end" transform="rotate(413.0,648.3,2152.6)">chr12</text>
<g id="highlight0">
<path d="M 660.735,2203.320 A1095.000,1095.000 0.000 0,1 660.735,2203.320 L 637.741,2222.589 A1125.000,1125.000 0.000 0,0 637.741,2222.589 Z " style="stroke: none;  fill: rgb(247,42,66); " />
<path d="M 557.225,2056.956 A1095.000,1095.000 0.000 0,1 557.225,2056.956 L 531.395,2072.215 A1125.000,1125.000 0.000 0,0 531.395,2072.215 Z " style="stroke: none;  fill: rgb(247,42,66); " />
</g>
<path d="M 720.010,2268.531 A1095.000,1095.000 0.000 0,1 545.787,2037.124 L 519.644,2051.840 A1125.000,1125.000 0.000 0,0 698.640,2289.587 Z " style="stroke-width: 2.0; stroke: rgb(170,170,170); fill: none; " />
<g id="highlight0">
</g>
<path d="M 542.509,2031.259 A1095.000,1095.000 0.000 0,1 447.125,1800.797 L 418.279,1809.038 A1125.000,1125.000 0.000 0,0 516.277,2045.814 Z " style="stroke-width: 2.0; stroke: rgb(170,170,170); fill: rgb(53,128,0); " />
<text x="512.1" y="1918.7" style="fill: rgb(0,0,0); font-size: 28.6px; text-anchor: end" transform="rotate(427.5,512.1,1918.7)">chr13</text>
<g id="highlight0">
</g>
<path d="M 542.509,2031.259 A1095.000,1095.000 0.000 0,1 447.125,1800.797 L 418.279,1809.038 A1125.000,1125.000 0.000 0,0 516.277,2045.814 Z " style="stroke-width: 2.0; stroke: rgb(170,170,170); fill: none; " />
<g id="highlight0">
</g>
<path d="M 445.299,1794.331 A1095.000,1095.000 0.000 0,1 406.929,1564.967 L 376.982,1566.747 A1125.000,1125.000 0.000 0,0 416.403,1802.395 Z " style="stroke-width: 2.0; stroke: rgb(170,170,170); fill: rgb(0,0,204); " />
<text x="443.2" y="1685.9" style="fill: rgb(0,0,0); font-size: 28.6px; text-anchor: end" transform="rotate(440.5,443.2,1685.9)">chr14</text>
<g id="highlight0">
<path d="M 419.414,1677.086 A1095.000,1095.000 0.000 0,1 419.414,1677.086 L 389.809,1681.937 A1125.000,1125.000 0.000 0,0 389.809,1681.937 Z " style="stroke: none;  fill: rgb(247,42,66); " />
<path d="M 415.318,1649.970 A1095.000,1095.000 0.000 0,1 415.318,1649.970 L 385.601,1654.079 A1125.000,1125.000 0.000 0,0 385.601,1654.079 Z " style="stroke: none;  fill: rgb(247,42,66); " />
</g>
<path d="M 445.299,1794.331 A1095.000,1095.000 0.000 0,1 406.929,1564.967 L 376.982,1566.747 A1125.000,1125.000 0.000 0,0 416.403,1802.395 Z " style="stroke-width: 2.0; stroke: rgb(170,170,170); fill: none; " />
<g id="highlight0">
</g>
<path d="M 406.551,1558.258 A1095.000,1095.000 0.000 0,1 417.295,1336.368 L 387.632,1331.885 A1125.000,1125.000 0.000 0,0 376.593,1559.855 Z " style="stroke-width: 2.0; stroke: rgb(170,170,170); fill: rgb(102,153,255); " />
<text x="450.8" y="1458.1" style="fill: rgb(0,0,0); font-size: 28.6px; text-anchor: end" transform="rotate(-87.2,450.8,1458.1)">chr15</text>
<g id="highlight0">
<path d="M 407.655,1423.796 A1095.000,1095.000 0.000 0,1 407.655,1423.796 L 377.728,1421.708 A1125.000,1125.000 0.000 0,0 377.728,1421.708 Z " style="stroke: none;  fill: rgb(247,42,66); " />
</g>
<path d="M 406.551,1558.258 A1095.000,1095.000 0.000 0,1 417.295,1336.368 L 387.632,1331.885 A1125.000,1125.000 0.000 0,0 376.593,1559.855 Z " style="stroke-width: 2.0; stroke: rgb(170,170,170); fill: none; " />
<g id="highlight0">
</g>
<path d="M 418.320,1329.728 A1095.000,1095.000 0.000 0,1 465.952,1139.765 L 437.622,1129.896 A1125.000,1125.000 0.000 0,0 388.685,1325.063 Z " style="stroke-width: 2.0; stroke: rgb(170,170,170); fill: rgb(153,204,255); " />
<text x="479.4" y="1253.2" style="fill: rgb(0,0,0); font-size: 28.6px; text-anchor: end" transform="rotate(-75.9,479.4,1253.2)">chr16</text>
<g id="highlight0">
<path d="M 430.874,1263.369 A1095.000,1095.000 0.000 0,1 430.874,1263.369 L 401.583,1256.886 A1125.000,1125.000 0.000 0,0 401.583,1256.886 Z " style="stroke: none;  fill: rgb(247,42,66); " />
</g>
<path d="M 418.320,1329.728 A1095.000,1095.000 0.000 0,1 465.952,1139.765 L 437.622,1129.896 A1125.000,1125.000 0.000 0,0 388.685,1325.063 Z " style="stroke-width: 2.0; stroke: rgb(170,170,170); fill: none; " />
<g id="highlight0">
</g>
<path d="M 468.182,1133.427 A1095.000,1095.000 0.000 0,1 540.256,972.823 L 513.961,958.379 A1125.000,1125.000 0.000 0,0 439.913,1123.384 Z " style="stroke-width: 2.0; stroke: rgb(170,170,170); fill: rgb(0,255,255); " />
<text x="538.5" y="1078.2" style="fill: rgb(0,0,0); font-size: 28.6px; text-anchor: end" transform="rotate(-65.8,538.5,1078.2)">chr17</text>
<g id="highlight0">
<path d="M 504.027,1044.958 A1095.000,1095.000 0.000 0,1 504.027,1044.958 L 476.740,1032.491 A1125.000,1125.000 0.000 0,0 476.740,1032.491 Z " style="stroke: none;  fill: rgb(247,42,66); " />
</g>
<path d="M 468.182,1133.427 A1095.000,1095.000 0.000 0,1 540.256,972.823 L 513.961,958.379 A1125.000,1125.000 0.000 0,0 439.913,1123.384 Z " style="stroke-width: 2.0; stroke: rgb(170,170,170); fill: none; " />
<g id="highlight0">
</g>
<path d="M 543.509,966.944 A1095.000,1095.000 0.000 0,1 637.105,825.881 L 613.464,807.412 A1125.000,1125.000 0.000 0,0 517.303,952.339 Z " style="stroke-width: 2.0; stroke: rgb(170,170,170); fill: rgb(204,255,255); " />
<text x="620.2" y="926.9" style="fill: rgb(0,0,0); font-size: 28.6px; text-anchor: end" transform="rotate(-56.4,620.2,926.9)">chr18</text>
<g id="highlight0">
<path d="M 589.543,891.648 A1095.000,1095.000 0.000 0,1 589.543,891.648 L 564.599,874.980 A1125.000,1125.000 0.000 0,0 564.599,874.980 Z " style="stroke: none;  fill: rgb(247,42,66); " />
</g>
<path d="M 543.509,966.944 A1095.000,1095.000 0.000 0,1 637.105,825.881 L 613.464,807.412 A1125.000,1125.000 0.000 0,0 517.303,952.339 Z " style="stroke-width: 2.0; stroke: rgb(170,170,170); fill: none; " />
<g id="highlight0">
</g>
<path d="M 641.257,820.599 A1095.000,1095.000 0.000 0,1 726.591,724.846 L 705.402,703.609 A1125.000,1125.000 0.000 0,0 617.730,801.985 Z " style="stroke-width: 2.0; stroke: rgb(170,170,170); fill: rgb(153,0,204); " />
<text x="710.3" y="808.0" style="fill: rgb(0,0,0); font-size: 28.6px; text-anchor: end" transform="rotate(-48.3,710.3,808.0)">chr19</text>
<g id="highlight0">
<path d="M 644.449,816.584 A1095.000,1095.000 0.000 0,1 644.449,816.584 L 621.009,797.860 A1125.000,1125.000 0.000 0,0 621.009,797.860 Z " style="stroke: none;  fill: rgb(247,42,66); " />
</g>
<path d="M 641.257,820.599 A1095.000,1095.000 0.000 0,1 726.591,724.846 L 705.402,703.609 A1125.000,1125.000 0.000 0,0 617.730,801.985 Z " style="stroke-width: 2.0; stroke: rgb(170,170,170); fill: none; " />
<g id="highlight0">
</g>
<path d="M 731.362,720.115 A1095.000,1095.000 0.000 0,1 834.524,630.422 L 816.291,606.598 A1125.000,1125.000 0.000 0,0 710.303,698.748 Z " style="stroke-width: 2.0; stroke: rgb(170,170,170); fill: rgb(204,51,255); " />
<text x="804.4" y="713.4" style="fill: rgb(0,0,0); font-size: 28.6px; text-anchor: end" transform="rotate(-41.0,804.4,713.4)">chr20</text>
<g id="highlight0">
<path d="M 736.274,715.304 A1095.000,1095.000 0.000 0,1 736.274,715.304 L 715.350,693.805 A1125.000,1125.000 0.000 0,0 715.350,693.805 Z " style="stroke: none;  fill: rgb(247,42,66); " />
</g>
<path d="M 731.362,720.115 A1095.000,1095.000 0.000 0,1 834.524,630.422 L 816.291,606.598 A1125.000,1125.000 0.000 0,0 710.303,698.748 Z " style="stroke-width: 2.0; stroke: rgb(170,170,170); fill: none; " />
<g id="highlight0">
</g>
<path d="M 839.872,626.355 A1095.000,1095.000 0.000 0,1 926.091,567.448 L 910.367,541.899 A1125.000,1125.000 0.000 0,0 821.786,602.419 Z " style="stroke-width: 2.0; stroke: rgb(170,170,170); fill: rgb(204,153,255); " />
<text x="900.4" y="638.1" style="fill: rgb(0,0,0); font-size: 28.6px; text-anchor: end" transform="rotate(-34.3,900.4,638.1)">chr21</text>
<g id="highlight0">
</g>
<path d="M 839.872,626.355 A1095.000,1095.000 0.000 0,1 926.091,567.448 L 910.367,541.899 A1125.000,1125.000 0.000 0,0 821.786,602.419 Z " style="stroke-width: 2.0; stroke: rgb(170,170,170); fill: none; " />
<g id="highlight0">
</g>
<path d="M 931.824,563.944 A1095.000,1095.000 0.000 0,1 1029.783,511.101 L 1016.900,484.008 A1125.000,1125.000 0.000 0,0 916.257,538.299 Z " style="stroke-width: 2.0; stroke: rgb(170,170,170); fill: rgb(102,102,102); " />
<text x="993.7" y="580.1" style="fill: rgb(0,0,0); font-size: 28.6px; text-anchor: end" transform="rotate(-28.3,993.7,580.1)">chr22</text>
<g id="highlight0">
</g>
<path d="M 931.824,563.944 A1095.000,1095.000 0.000 0,1 1029.783,511.101 L 1016.900,484.008 A1125.000,1125.000 0.000 0,0 916.257,538.299 Z " style="stroke-width: 2.0; stroke: rgb(170,170,170); fill: none; " />
<g id="highlight0">
</g>
<path d="M 1035.860,508.235 A1095.000,1095.000 0.000 0,1 1358.099,414.233 L 1354.211,384.486 A1125.000,1125.000 0.000 0,0 1023.143,481.063 Z " style="stroke-width: 2.0; stroke: rgb(170,170,170); fill: rgb(153,153,153); " />
<text x="1197.5" y="494.5" style="fill: rgb(0,0,0); font-size: 28.6px; text-anchor: end" transform="rotate(-16.3,1197.5,494.5)">chrX</text>
<g id="highlight0">
</g>
<path d="M 1035.860,508.235 A1095.000,1095.000 0.000 0,1 1358.099,414.233 L 1354.211,384.486 A1125.000,1125.000 0.000 0,0 1023.143,481.063 Z " style="stroke-width: 2.0; stroke: rgb(170,170,170); fill: none; " />
<g id="highlight0">
</g>
<path d="M 1364.763,413.383 A1095.000,1095.000 0.000 0,1 1493.281,405.021 L 1493.097,375.021 A1125.000,1125.000 0.000 0,0 1361.058,383.613 Z " style="stroke-width: 2.0; stroke: rgb(170,170,170); fill: rgb(204,204,204); " />
<text x="1423.0" y="452.8" style="fill: rgb(0,0,0); font-size: 28.6px; text-anchor: end" transform="rotate(-3.7,1423.0,452.8)">chrY</text>
<g id="highlight0">
</g>
<path d="M 1364.763,413.383 A1095.000,1095.000 0.000 0,1 1493.281,405.021 L 1493.097,375.021 A1125.000,1125.000 0.000 0,0 1361.058,383.613 Z " style="stroke-width: 2.0; stroke: rgb(170,170,170); fill: none; " />
</g>
<g id="plot0">
<g id="plot0-axis">
</g>
<line x1="2610.4" y1="1295.7" x2="2614.3" y2="1295.0" style="stroke-width: 2.0; stroke: rgb(247,42,66); stroke-linecap: round;" />
<line x1="2614.3" y1="1295.0" x2="2622.2" y2="1293.6" style="stroke-width: 2.0; stroke: rgb(247,42,66); stroke-linecap: round;" />
<line x1="2622.2" y1="1293.6" x2="2626.1" y2="1292.8" style="stroke-width: 2.0; stroke: rgb(247,42,66); stroke-linecap: round;" />
<text x="2631.9" y="1302.7" style="fill: rgb(247,42,66); font-size: 31.2px; text-anchor: start" transform="rotate(349.6,2631.9,1302.7)">TMEM175-GAK-DGKQ</text>
<line x1="2285.0" y1="688.6" x2="2287.8" y2="685.7" style="stroke-width: 2.0; stroke: rgb(247,42,66); stroke-linecap: round;" />
<line x1="2287.8" y1="685.7" x2="2293.3" y2="679.9" style="stroke-width: 2.0; stroke: rgb(247,42,66); stroke-linecap: round;" />
<line x1="2293.3" y1="679.9" x2="2296.1" y2="677.1" style="stroke-width: 2.0; stroke: rgb(247,42,66); stroke-linecap: round;" />
<text x="2306.3" y="681.4" style="fill: rgb(247,42,66); font-size: 31.2px; text-anchor: start" transform="rotate(314.1,2306.3,681.4)">ACMSD-TMEM163</text>
<line x1="2535.9" y1="1051.0" x2="2539.6" y2="1049.4" style="stroke-width: 2.0; stroke: rgb(247,42,66); stroke-linecap: round;" />
<line x1="2539.6" y1="1049.4" x2="2546.9" y2="1046.3" style="stroke-width: 2.0; stroke: rgb(247,42,66); stroke-linecap: round;" />
<line x1="2546.9" y1="1046.3" x2="2550.6" y2="1044.7" style="stroke-width: 2.0; stroke: rgb(247,42,66); stroke-linecap: round;" />
<text x="2558.3" y="1052.6" style="fill: rgb(247,42,66); font-size: 31.2px; text-anchor: start" transform="rotate(336.6,2558.3,1052.6)">KRT8P25-APOOP2</text>
<line x1="2628.5" y1="1465.2" x2="2632.5" y2="1465.1" style="stroke-width: 2.0; stroke: rgb(247,42,66); stroke-linecap: round;" />
<line x1="2632.5" y1="1465.1" x2="2640.5" y2="1464.9" style="stroke-width: 2.0; stroke: rgb(247,42,66); stroke-linecap: round;" />
<line x1="2640.5" y1="1464.9" x2="2644.5" y2="1464.7" style="stroke-width: 2.0; stroke: rgb(247,42,66); stroke-linecap: round;" />
<text x="2648.7" y="1475.0" style="fill: rgb(247,42,66); font-size: 31.2px; text-anchor: start" transform="rotate(358.2,2648.7,1475.0)">FAM47E-SCARB2</text>
<line x1="1947.7" y1="463.6" x2="1949.3" y2="459.9" style="stroke-width: 2.0; stroke: rgb(247,42,66); stroke-linecap: round;" />
<line x1="1949.3" y1="459.9" x2="1952.5" y2="452.6" style="stroke-width: 2.0; stroke: rgb(247,42,66); stroke-linecap: round;" />
<line x1="1952.5" y1="452.6" x2="1954.1" y2="448.9" style="stroke-width: 2.0; stroke: rgb(247,42,66); stroke-linecap: round;" />
<text x="1965.2" y="449.4" style="fill: rgb(247,42,66); font-size: 31.2px; text-anchor: start" transform="rotate(293.4,1965.2,449.4)">RAB7L1-NUCKS1</text>
<line x1="397.7" y1="1256.0" x2="393.8" y2="1255.2" style="stroke-width: 2.0; stroke: rgb(247,42,66); stroke-linecap: round;" />
<line x1="393.8" y1="1255.2" x2="386.0" y2="1253.4" style="stroke-width: 2.0; stroke: rgb(247,42,66); stroke-linecap: round;" />
<line x1="386.0" y1="1253.4" x2="382.1" y2="1252.6" style="stroke-width: 2.0; stroke: rgb(247,42,66); stroke-linecap: round;" />
<text x="376.0" y="1261.8" style="fill: rgb(247,42,66); font-size: 31.2px; text-anchor: end" transform="rotate(12.5,376.0,1261.8)">BCKDK-STX1B</text>
<line x1="381.6" y1="1654.6" x2="377.7" y2="1655.2" style="stroke-width: 2.0; stroke: rgb(247,42,66); stroke-linecap: round;" />
<line x1="377.7" y1="1655.2" x2="369.8" y2="1656.3" style="stroke-width: 2.0; stroke: rgb(247,42,66); stroke-linecap: round;" />
<line x1="369.8" y1="1656.3" x2="365.8" y2="1656.8" style="stroke-width: 2.0; stroke: rgb(247,42,66); stroke-linecap: round;" />
<text x="363.2" y="1666.9" style="fill: rgb(247,42,66); font-size: 31.2px; text-anchor: end" transform="rotate(352.1,363.2,1666.9)">TMEM229B</text>
<line x1="1841.7" y1="424.0" x2="1842.9" y2="420.1" style="stroke-width: 2.0; stroke: rgb(247,42,66); stroke-linecap: round;" />
<line x1="1842.9" y1="420.1" x2="1845.3" y2="412.5" style="stroke-width: 2.0; stroke: rgb(247,42,66); stroke-linecap: round;" />
<line x1="1845.3" y1="412.5" x2="1846.6" y2="408.7" style="stroke-width: 2.0; stroke: rgb(247,42,66); stroke-linecap: round;" />
<text x="1857.7" y="408.1" style="fill: rgb(247,42,66); font-size: 31.2px; text-anchor: start" transform="rotate(287.6,1857.7,408.1)">GBA-SYT11</text>
<line x1="2411.8" y1="2165.8" x2="2415.0" y2="2168.1" style="stroke-width: 2.0; stroke: rgb(247,42,66); stroke-linecap: round;" />
<line x1="2415.0" y1="2168.1" x2="2421.5" y2="2172.8" style="stroke-width: 2.0; stroke: rgb(247,42,66); stroke-linecap: round;" />
<line x1="2421.5" y1="2172.8" x2="2424.7" y2="2175.2" style="stroke-width: 2.0; stroke: rgb(247,42,66); stroke-linecap: round;" />
<text x="2421.6" y="2186.2" style="fill: rgb(247,42,66); font-size: 31.2px; text-anchor: start" transform="rotate(36.1,2421.6,2186.2)">HLA-DQB1</text>
<line x1="702.6" y1="2299.3" x2="699.8" y2="2302.1" style="stroke-width: 2.0; stroke: rgb(247,42,66); stroke-linecap: round;" />
<line x1="699.8" y1="2302.1" x2="694.2" y2="2307.8" style="stroke-width: 2.0; stroke: rgb(247,42,66); stroke-linecap: round;" />
<line x1="694.2" y1="2307.8" x2="691.3" y2="2310.6" style="stroke-width: 2.0; stroke: rgb(247,42,66); stroke-linecap: round;" />
<text x="695.3" y="2320.2" style="fill: rgb(247,42,66); font-size: 31.2px; text-anchor: end" transform="rotate(314.9,695.3,2320.2)">MIR4697</text>
<line x1="528.0" y1="2074.2" x2="524.5" y2="2076.3" style="stroke-width: 2.0; stroke: rgb(247,42,66); stroke-linecap: round;" />
<line x1="524.5" y1="2076.3" x2="517.6" y2="2080.4" style="stroke-width: 2.0; stroke: rgb(247,42,66); stroke-linecap: round;" />
<line x1="517.6" y1="2080.4" x2="514.2" y2="2082.4" style="stroke-width: 2.0; stroke: rgb(247,42,66); stroke-linecap: round;" />
<text x="516.1" y="2093.3" style="fill: rgb(247,42,66); font-size: 31.2px; text-anchor: end" transform="rotate(329.4,516.1,2093.3)">CCDC62</text>
<line x1="2002.4" y1="488.9" x2="2004.2" y2="485.4" style="stroke-width: 2.0; stroke: rgb(247,42,66); stroke-linecap: round;" />
<line x1="2004.2" y1="485.4" x2="2007.7" y2="478.2" style="stroke-width: 2.0; stroke: rgb(247,42,66); stroke-linecap: round;" />
<line x1="2007.7" y1="478.2" x2="2009.5" y2="474.6" style="stroke-width: 2.0; stroke: rgb(247,42,66); stroke-linecap: round;" />
<text x="2020.6" y="475.7" style="fill: rgb(247,42,66); font-size: 31.2px; text-anchor: start" transform="rotate(296.4,2020.6,475.7)">SIPA1L2</text>
<line x1="712.6" y1="690.9" x2="709.8" y2="688.1" style="stroke-width: 2.0; stroke: rgb(247,42,66); stroke-linecap: round;" />
<line x1="709.8" y1="688.1" x2="704.2" y2="682.3" style="stroke-width: 2.0; stroke: rgb(247,42,66); stroke-linecap: round;" />
<line x1="704.2" y1="682.3" x2="701.4" y2="679.5" style="stroke-width: 2.0; stroke: rgb(247,42,66); stroke-linecap: round;" />
<text x="691.2" y="683.9" style="fill: rgb(247,42,66); font-size: 31.2px; text-anchor: end" transform="rotate(45.8,691.2,683.9)">DDRGK1</text>
<line x1="373.7" y1="1421.4" x2="369.7" y2="1421.2" style="stroke-width: 2.0; stroke: rgb(247,42,66); stroke-linecap: round;" />
<line x1="369.7" y1="1421.2" x2="361.8" y2="1420.6" style="stroke-width: 2.0; stroke: rgb(247,42,66); stroke-linecap: round;" />
<line x1="361.8" y1="1420.6" x2="357.8" y2="1420.3" style="stroke-width: 2.0; stroke: rgb(247,42,66); stroke-linecap: round;" />
<text x="353.1" y="1430.4" style="fill: rgb(247,42,66); font-size: 31.2px; text-anchor: end" transform="rotate(4.0,353.1,1430.4)">VPS13C</text>
<line x1="617.9" y1="795.4" x2="614.8" y2="792.9" style="stroke-width: 2.0; stroke: rgb(247,42,66); stroke-linecap: round;" />
<line x1="614.8" y1="792.9" x2="608.5" y2="787.9" style="stroke-width: 2.0; stroke: rgb(247,42,66); stroke-linecap: round;" />
<line x1="608.5" y1="787.9" x2="605.4" y2="785.4" style="stroke-width: 2.0; stroke: rgb(247,42,66); stroke-linecap: round;" />
<text x="595.8" y="791.0" style="fill: rgb(247,42,66); font-size: 31.2px; text-anchor: end" transform="rotate(38.6,595.8,791.0)">SPPL2B</text>
<line x1="2149.9" y1="2423.2" x2="2152.2" y2="2426.5" style="stroke-width: 2.0; stroke: rgb(247,42,66); stroke-linecap: round;" />
<line x1="2152.2" y1="2426.5" x2="2156.8" y2="2433.0" style="stroke-width: 2.0; stroke: rgb(247,42,66); stroke-linecap: round;" />
<line x1="2156.8" y1="2433.0" x2="2159.1" y2="2436.3" style="stroke-width: 2.0; stroke: rgb(247,42,66); stroke-linecap: round;" />
<text x="2152.9" y="2445.5" style="fill: rgb(247,42,66); font-size: 31.2px; text-anchor: start" transform="rotate(54.9,2152.9,2445.5)">GPNMB</text>
<line x1="2601.7" y1="1253.4" x2="2605.6" y2="1252.5" style="stroke-width: 2.0; stroke: rgb(247,42,66); stroke-linecap: round;" />
<line x1="2605.6" y1="1252.5" x2="2613.5" y2="1250.8" style="stroke-width: 2.0; stroke: rgb(247,42,66); stroke-linecap: round;" />
<line x1="2613.5" y1="1250.8" x2="2617.4" y2="1249.9" style="stroke-width: 2.0; stroke: rgb(247,42,66); stroke-linecap: round;" />
<text x="2623.5" y="1259.2" style="fill: rgb(247,42,66); font-size: 31.2px; text-anchor: start" transform="rotate(347.4,2623.5,1259.2)">MCCC1</text>
<line x1="973.5" y1="2498.7" x2="971.6" y2="2502.2" style="stroke-width: 2.0; stroke: rgb(247,42,66); stroke-linecap: round;" />
<line x1="971.6" y1="2502.2" x2="967.9" y2="2509.3" style="stroke-width: 2.0; stroke: rgb(247,42,66); stroke-linecap: round;" />
<line x1="967.9" y1="2509.3" x2="966.0" y2="2512.9" style="stroke-width: 2.0; stroke: rgb(247,42,66); stroke-linecap: round;" />
<text x="972.7" y="2520.8" style="fill: rgb(247,42,66); font-size: 31.2px; text-anchor: end" transform="rotate(297.8,972.7,2520.8)">INPP5F</text>
<line x1="634.7" y1="2225.2" x2="631.6" y2="2227.7" style="stroke-width: 2.0; stroke: rgb(247,42,66); stroke-linecap: round;" />
<line x1="631.6" y1="2227.7" x2="625.5" y2="2232.9" style="stroke-width: 2.0; stroke: rgb(247,42,66); stroke-linecap: round;" />
<line x1="625.5" y1="2232.9" x2="622.4" y2="2235.4" style="stroke-width: 2.0; stroke: rgb(247,42,66); stroke-linecap: round;" />
<text x="625.6" y="2245.3" style="fill: rgb(247,42,66); font-size: 31.2px; text-anchor: end" transform="rotate(320.0,625.6,2245.3)">LRRK2</text>
<line x1="2337.2" y1="742.5" x2="2340.2" y2="739.9" style="stroke-width: 2.0; stroke: rgb(247,42,66); stroke-linecap: round;" />
<line x1="2340.2" y1="739.9" x2="2346.1" y2="734.5" style="stroke-width: 2.0; stroke: rgb(247,42,66); stroke-linecap: round;" />
<line x1="2346.1" y1="734.5" x2="2349.1" y2="731.8" style="stroke-width: 2.0; stroke: rgb(247,42,66); stroke-linecap: round;" />
<text x="2359.0" y="736.9" style="fill: rgb(247,42,66); font-size: 31.2px; text-anchor: start" transform="rotate(317.9,2359.0,736.9)">STK39</text>
<line x1="473.1" y1="1030.8" x2="469.5" y2="1029.2" style="stroke-width: 2.0; stroke: rgb(247,42,66); stroke-linecap: round;" />
<line x1="469.5" y1="1029.2" x2="462.2" y2="1025.8" style="stroke-width: 2.0; stroke: rgb(247,42,66); stroke-linecap: round;" />
<line x1="462.2" y1="1025.8" x2="458.5" y2="1024.2" style="stroke-width: 2.0; stroke: rgb(247,42,66); stroke-linecap: round;" />
<text x="451.0" y="1031.3" style="fill: rgb(247,42,66); font-size: 31.2px; text-anchor: end" transform="rotate(24.6,451.0,1031.3)">MAPT</text>
<line x1="2629.0" y1="1495.3" x2="2633.0" y2="1495.3" style="stroke-width: 2.0; stroke: rgb(247,42,66); stroke-linecap: round;" />
<line x1="2633.0" y1="1495.3" x2="2641.0" y2="1495.2" style="stroke-width: 2.0; stroke: rgb(247,42,66); stroke-linecap: round;" />
<line x1="2641.0" y1="1495.2" x2="2645.0" y2="1495.2" style="stroke-width: 2.0; stroke: rgb(247,42,66); stroke-linecap: round;" />
<text x="2649.0" y="1505.6" style="fill: rgb(247,42,66); font-size: 31.2px; text-anchor: start" transform="rotate(359.8,2649.0,1505.6)">SNCA</text>
<line x1="786.0" y1="2374.6" x2="783.5" y2="2377.7" style="stroke-width: 2.0; stroke: rgb(247,42,66); stroke-linecap: round;" />
<line x1="783.5" y1="2377.7" x2="778.4" y2="2383.9" style="stroke-width: 2.0; stroke: rgb(247,42,66); stroke-linecap: round;" />
<line x1="778.4" y1="2383.9" x2="775.9" y2="2387.0" style="stroke-width: 2.0; stroke: rgb(247,42,66); stroke-linecap: round;" />
<text x="781.4" y="2396.6" style="fill: rgb(247,42,66); font-size: 31.2px; text-anchor: end" transform="rotate(309.2,781.4,2396.6)">DLG2</text>
<line x1="385.9" y1="1682.6" x2="381.9" y2="1683.2" style="stroke-width: 2.0; stroke: rgb(247,42,66); stroke-linecap: round;" />
<line x1="381.9" y1="1683.2" x2="374.0" y2="1684.5" style="stroke-width: 2.0; stroke: rgb(247,42,66); stroke-linecap: round;" />
<line x1="374.0" y1="1684.5" x2="370.1" y2="1685.2" style="stroke-width: 2.0; stroke: rgb(247,42,66); stroke-linecap: round;" />
<text x="367.9" y="1696.1" style="fill: rgb(247,42,66); font-size: 31.2px; text-anchor: end" transform="rotate(350.7,367.9,1696.1)">GCH1</text>
<line x1="2615.9" y1="1328.4" x2="2619.8" y2="1327.8" style="stroke-width: 2.0; stroke: rgb(247,42,66); stroke-linecap: round;" />
<line x1="2619.8" y1="1327.8" x2="2627.7" y2="1326.5" style="stroke-width: 2.0; stroke: rgb(247,42,66); stroke-linecap: round;" />
<line x1="2627.7" y1="1326.5" x2="2631.7" y2="1325.9" style="stroke-width: 2.0; stroke: rgb(247,42,66); stroke-linecap: round;" />
<text x="2637.2" y="1335.6" style="fill: rgb(247,42,66); font-size: 31.2px; text-anchor: start" transform="rotate(351.3,2637.2,1335.6)">BST1</text>
<line x1="561.3" y1="872.8" x2="557.9" y2="870.5" style="stroke-width: 2.0; stroke: rgb(247,42,66); stroke-linecap: round;" />
<line x1="557.9" y1="870.5" x2="551.3" y2="866.1" style="stroke-width: 2.0; stroke: rgb(247,42,66); stroke-linecap: round;" />
<line x1="551.3" y1="866.1" x2="548.0" y2="863.9" style="stroke-width: 2.0; stroke: rgb(247,42,66); stroke-linecap: round;" />
<text x="539.3" y="869.7" style="fill: rgb(247,42,66); font-size: 31.2px; text-anchor: end" transform="rotate(33.8,539.3,869.7)">RIT2</text>
</g>
</svg>
