<?xml version="1.0" standalone="no"?>
<!DOCTYPE svg PUBLIC "-//W3C//DTD SVG 1.1//EN" "http://www.w3.org/Graphics/SVG/1.1/DTD/svg11.dtd">
<svg width="3000px" height="3000px" version="1.1" xmlns="http://www.w3.org/2000/svg" xmlns:xlink="http://www.w3.org/1999/xlink">
<g id="ideograms">
<g id="highlight0">
</g>
<path d="M 1500.000,405.000 A1095.000,1095.000 0.000 0,1 2019.233,535.934 L 2033.458,509.522 A1125.000,1125.000 0.000 0,0 1500.000,375.000 Z " style="stroke-width: 2.0; stroke: rgb(170,170,170); fill: rgb(153,102,0); " />
<text x="1787.3" y="396.8" style="fill: rgb(0,0,0); font-size: 28.6px; text-anchor: start" transform="rotate(374.2,1787.3,396.8)">chr1</text>
<g id="highlight0">
<path d="M 1831.423,456.360 A1095.000,1095.000 0.000 0,1 1831.423,456.360 L 1840.503,427.767 A1125.000,1125.000 0.000 0,0 1840.503,427.767 Z " style="stroke: none;  fill: rgb(247,42,66); " />
<path d="M 1934.230,494.779 A1095.000,1095.000 0.000 0,1 1934.230,494.779 L 1946.127,467.239 A1125.000,1125.000 0.000 0,0 1946.127,467.239 Z " style="stroke: none;  fill: rgb(247,42,66); " />
<path d="M 1987.264,519.389 A1095.000,1095.000 0.000 0,1 1987.264,519.389 L 2000.614,492.523 A1125.000,1125.000 0.000 0,0 2000.614,492.523 Z " style="stroke: none;  fill: rgb(247,42,66); " />
</g>
<path d="M 1500.000,405.000 A1095.000,1095.000 0.000 0,1 2019.233,535.934 L 2033.458,509.522 A1125.000,1125.000 0.000 0,0 1500.000,375.000 Z " style="stroke-width: 2.0; stroke: rgb(170,170,170); fill: none; " />
<g id="highlight0">
</g>
<path d="M 2025.138,539.138 A1095.000,1095.000 0.000 0,1 2410.745,892.079 L 2435.697,875.423 A1125.000,1125.000 0.000 0,0 2039.526,512.814 Z " style="stroke-width: 2.0; stroke: rgb(170,170,170); fill: rgb(102,102,0); " />
<text x="2276.2" y="665.1" style="fill: rgb(0,0,0); font-size: 28.6px; text-anchor: start" transform="rotate(402.5,2276.2,665.1)">chr2</text>
<g id="highlight0">
<path d="M 2261.345,712.994 A1095.000,1095.000 0.000 0,1 2261.345,712.994 L 2282.204,691.432 A1125.000,1125.000 0.000 0,0 2282.204,691.432 Z " style="stroke: none;  fill: rgb(247,42,66); " />
<path d="M 2311.989,765.358 A1095.000,1095.000 0.000 0,1 2311.989,765.358 L 2334.235,745.231 A1125.000,1125.000 0.000 0,0 2334.235,745.231 Z " style="stroke: none;  fill: rgb(247,42,66); " />
</g>
<path d="M 2025.138,539.138 A1095.000,1095.000 0.000 0,1 2410.745,892.079 L 2435.697,875.423 A1125.000,1125.000 0.000 0,0 2039.526,512.814 Z " style="stroke-width: 2.0; stroke: rgb(170,170,170); fill: none; " />
<g id="highlight0">
</g>
<path d="M 2414.458,897.679 A1095.000,1095.000 0.000 0,1 2575.306,1293.260 L 2604.767,1287.596 A1125.000,1125.000 0.000 0,0 2439.512,881.177 Z " style="stroke-width: 2.0; stroke: rgb(170,170,170); fill: rgb(153,153,30); " />
<text x="2559.3" y="1078.8" style="fill: rgb(0,0,0); font-size: 28.6px; text-anchor: start" transform="rotate(427.9,2559.3,1078.8)">chr3</text>
<g id="highlight0">
<path d="M 2504.697,1064.560 A1095.000,1095.000 0.000 0,1 2504.697,1064.560 L 2532.223,1052.630 A1125.000,1125.000 0.000 0,0 2532.223,1052.630 Z " style="stroke: none;  fill: rgb(247,42,66); " />
<path d="M 2568.562,1260.835 A1095.000,1095.000 0.000 0,1 2568.562,1260.835 L 2597.838,1254.283 A1125.000,1125.000 0.000 0,0 2597.838,1254.283 Z " style="stroke: none;  fill: rgb(247,42,66); " />
</g>
<path d="M 2414.458,897.679 A1095.000,1095.000 0.000 0,1 2575.306,1293.260 L 2604.767,1287.596 A1125.000,1125.000 0.000 0,0 2439.512,881.177 Z " style="stroke-width: 2.0; stroke: rgb(170,170,170); fill: none; " />
<g id="highlight0">
</g>
<path d="M 2576.555,1299.862 A1095.000,1095.000 0.000 0,1 2574.231,1712.258 L 2603.662,1718.074 A1125.000,1125.000 0.000 0,0 2606.049,1294.379 Z " style="stroke-width: 2.0; stroke: rgb(170,170,170); fill: rgb(204,0,0); " />
<text x="2662.9" y="1515.6" style="fill: rgb(0,0,0); font-size: 28.6px; text-anchor: start" transform="rotate(-89.7,2662.9,1515.6)">chr4</text>
<g id="highlight0">
<path d="M 2576.930,1301.894 A1095.000,1095.000 0.000 0,1 2576.930,1301.894 L 2606.435,1296.466 A1125.000,1125.000 0.000 0,0 2606.435,1296.466 Z " style="stroke: none;  fill: rgb(247,42,66); " />
<path d="M 2582.273,1333.535 A1095.000,1095.000 0.000 0,1 2582.273,1333.535 L 2611.924,1328.974 A1125.000,1125.000 0.000 0,0 2611.924,1328.974 Z " style="stroke: none;  fill: rgb(247,42,66); " />
<path d="M 2594.481,1466.288 A1095.000,1095.000 0.000 0,1 2594.481,1466.288 L 2624.467,1465.365 A1125.000,1125.000 0.000 0,0 2624.467,1465.365 Z " style="stroke: none;  fill: rgb(247,42,66); " />
<path d="M 2594.990,1495.425 A1095.000,1095.000 0.000 0,1 2594.990,1495.425 L 2624.990,1495.300 A1125.000,1125.000 0.000 0,0 2624.990,1495.300 Z " style="stroke: none;  fill: rgb(247,42,66); " />
</g>
<path d="M 2576.555,1299.862 A1095.000,1095.000 0.000 0,1 2574.231,1712.258 L 2603.662,1718.074 A1125.000,1125.000 0.000 0,0 2606.049,1294.379 Z " style="stroke-width: 2.0; stroke: rgb(170,170,170); fill: none; " />
<g id="highlight0">
</g>
<path d="M 2572.908,1718.846 A1095.000,1095.000 0.000 0,1 2427.858,2081.468 L 2453.278,2097.399 A1125.000,1125.000 0.000 0,0 2602.303,1724.842 Z " style="stroke-width: 2.0; stroke: rgb(170,170,170); fill: rgb(255,0,0); " />
<text x="2576.4" y="1940.3" style="fill: rgb(0,0,0); font-size: 28.6px; text-anchor: start" transform="rotate(-68.2,2576.4,1940.3)">chr5</text>
<g id="highlight0">
</g>
<path d="M 2572.908,1718.846 A1095.000,1095.000 0.000 0,1 2427.858,2081.468 L 2453.278,2097.399 A1125.000,1125.000 0.000 0,0 2602.303,1724.842 Z " style="stroke-width: 2.0; stroke: rgb(170,170,170); fill: none; " />
<g id="highlight0">
</g>
<path d="M 2424.272,2087.150 A1095.000,1095.000 0.000 0,1 2176.273,2361.208 L 2194.801,2384.803 A1125.000,1125.000 0.000 0,0 2449.595,2103.237 Z " style="stroke-width: 2.0; stroke: rgb(170,170,170); fill: rgb(255,0,204); " />
<text x="2356.3" y="2287.0" style="fill: rgb(0,0,0); font-size: 28.6px; text-anchor: start" transform="rotate(-47.9,2356.3,2287.0)">chr6</text>
<g id="highlight0">
<path d="M 2384.345,2145.723 A1095.000,1095.000 0.000 0,1 2384.345,2145.723 L 2408.574,2163.415 A1125.000,1125.000 0.000 0,0 2408.574,2163.415 Z " style="stroke: none;  fill: rgb(247,42,66); " />
</g>
<path d="M 2424.272,2087.150 A1095.000,1095.000 0.000 0,1 2176.273,2361.208 L 2194.801,2384.803 A1125.000,1125.000 0.000 0,0 2449.595,2103.237 Z " style="stroke-width: 2.0; stroke: rgb(170,170,170); fill: none; " />
<g id="highlight0">
</g>
<path d="M 2170.976,2365.341 A1095.000,1095.000 0.000 0,1 1869.424,2530.801 L 1879.545,2559.042 A1125.000,1125.000 0.000 0,0 2189.359,2389.049 Z " style="stroke-width: 2.0; stroke: rgb(170,170,170); fill: rgb(255,204,204); " />
<text x="2051.5" y="2523.9" style="fill: rgb(0,0,0); font-size: 28.6px; text-anchor: start" transform="rotate(-28.8,2051.5,2523.9)">chr7</text>
<g id="highlight0">
<path d="M 2130.322,2395.387 A1095.000,1095.000 0.000 0,1 2130.322,2395.387 L 2147.591,2419.919 A1125.000,1125.000 0.000 0,0 2147.591,2419.919 Z " style="stroke: none;  fill: rgb(247,42,66); " />
</g>
<path d="M 2170.976,2365.341 A1095.000,1095.000 0.000 0,1 1869.424,2530.801 L 1879.545,2559.042 A1125.000,1125.000 0.000 0,0 2189.359,2389.049 Z " style="stroke-width: 2.0; stroke: rgb(170,170,170); fill: none; " />
<g id="highlight0">
</g>
<path d="M 1863.092,2533.048 A1095.000,1095.000 0.000 0,1 1552.411,2593.745 L 1553.847,2623.711 A1125.000,1125.000 0.000 0,0 1873.040,2561.351 Z " style="stroke-width: 2.0; stroke: rgb(170,170,170); fill: rgb(255,153,0); " />
<text x="1714.1" y="2643.1" style="fill: rgb(0,0,0); font-size: 28.6px; text-anchor: start" transform="rotate(-11.1,1714.1,2643.1)">chr8</text>
<g id="highlight0">
</g>
<path d="M 1863.092,2533.048 A1095.000,1095.000 0.000 0,1 1552.411,2593.745 L 1553.847,2623.711 A1125.000,1125.000 0.000 0,0 1873.040,2561.351 Z " style="stroke-width: 2.0; stroke: rgb(170,170,170); fill: none; " />
<g id="highlight0">
</g>
<path d="M 1545.699,2594.046 A1095.000,1095.000 0.000 0,1 1241.682,2564.094 L 1234.604,2593.248 A1125.000,1125.000 0.000 0,0 1546.951,2624.020 Z " style="stroke-width: 2.0; stroke: rgb(170,170,170); fill: rgb(255,204,0); " />
<text x="1395.0" y="2658.2" style="fill: rgb(0,0,0); font-size: 28.6px; text-anchor: end" transform="rotate(365.6,1395.0,2658.2)">chr9</text>
<g id="highlight0">
</g>
<path d="M 1545.699,2594.046 A1095.000,1095.000 0.000 0,1 1241.682,2564.094 L 1234.604,2593.248 A1125.000,1125.000 0.000 0,0 1546.951,2624.020 Z " style="stroke-width: 2.0; stroke: rgb(170,170,170); fill: none; " />
<g id="highlight0">
</g>
<path d="M 1235.157,2562.489 A1095.000,1095.000 0.000 0,1 962.648,2454.085 L 947.926,2480.224 A1125.000,1125.000 0.000 0,0 1227.901,2591.599 Z " style="stroke-width: 2.0; stroke: rgb(170,170,170); fill: rgb(255,255,0); " />
<text x="1078.5" y="2583.9" style="fill: rgb(0,0,0); font-size: 28.6px; text-anchor: end" transform="rotate(381.7,1078.5,2583.9)">chr10</text>
<g id="highlight0">
<path d="M 989.323,2468.625 A1095.000,1095.000 0.000 0,1 989.323,2468.625 L 975.332,2495.163 A1125.000,1125.000 0.000 0,0 975.332,2495.163 Z " style="stroke: none;  fill: rgb(247,42,66); " />
</g>
<path d="M 1235.157,2562.489 A1095.000,1095.000 0.000 0,1 962.648,2454.085 L 947.926,2480.224 A1125.000,1125.000 0.000 0,0 1227.901,2591.599 Z " style="stroke-width: 2.0; stroke: rgb(170,170,170); fill: none; " />
<g id="highlight0">
</g>
<path d="M 956.804,2450.770 A1095.000,1095.000 0.000 0,1 724.740,2273.303 L 703.500,2294.489 A1125.000,1125.000 0.000 0,0 941.922,2476.818 Z " style="stroke-width: 2.0; stroke: rgb(170,170,170); fill: rgb(204,255,0); " />
<text x="800.7" y="2429.3" style="fill: rgb(0,0,0); font-size: 28.6px; text-anchor: end" transform="rotate(397.4,800.7,2429.3)">chr11</text>
<g id="highlight0">
<path d="M 807.512,2348.225 A1095.000,1095.000 0.000 0,1 807.512,2348.225 L 788.540,2371.464 A1125.000,1125.000 0.000 0,0 788.540,2371.464 Z " style="stroke: none;  fill: rgb(247,42,66); " />
<path d="M 726.645,2275.208 A1095.000,1095.000 0.000 0,1 726.645,2275.208 L 705.457,2296.446 A1125.000,1125.000 0.000 0,0 705.457,2296.446 Z " style="stroke: none;  fill: rgb(247,42,66); " />
</g>
<path d="M 956.804,2450.770 A1095.000,1095.000 0.000 0,1 724.740,2273.303 L 703.500,2294.489 A1125.000,1125.000 0.000 0,0 941.922,2476.818 Z " style="stroke-width: 2.0; stroke: rgb(170,170,170); fill: none; " />
<g id="highlight0">
</g>
<path d="M 720.010,2268.531 A1095.000,1095.000 0.000 0,1 545.787,2037.124 L 519.644,2051.840 A1125.000,1125.000 0.000 0,0 698.640,2289.587 Z " style="stroke-width: 2.0; stroke: rgb(170,170,170); fill: rgb(0,255,0); " />
<text x="576.3" y="2206.7" style="fill: rgb(0,0,0); font-size: 28.6px; text-anchor: end" transform="rotate(413.0,576.3,2206.7)">chr12</text>
<g id="highlight0">
<path d="M 660.735,2203.320 A1095.000,1095.000 0.000 0,1 660.735,2203.320 L 637.741,2222.589 A1125.000,1125.000 0.000 0,0 637.741,2222.589 Z " style="stroke: none;  fill: rgb(247,42,66); " />
<path d="M 557.225,2056.956 A1095.000,1095.000 0.000 0,1 557.225,2056.956 L 531.395,2072.215 A1125.000,1125.000 0.000 0,0 531.395,2072.215 Z " style="stroke: none;  fill: rgb(247,42,66); " />
</g>
<path d="M 720.010,2268.531 A1095.000,1095.000 0.000 0,1 545.787,2037.124 L 519.644,2051.840 A1125.000,1125.000 0.000 0,0 698.640,2289.587 Z " style="stroke-width: 2.0; stroke: rgb(170,170,170); fill: none; " />
<g id="highlight0">
</g>
<path d="M 542.509,2031.259 A1095.000,1095.000 0.000 0,1 447.125,1800.797 L 418.279,1809.038 A1125.000,1125.000 0.000 0,0 516.277,2045.814 Z " style="stroke-width: 2.0; stroke: rgb(170,170,170); fill: rgb(53,128,0); " />
<text x="428.9" y="1953.1" style="fill: rgb(0,0,0); font-size: 28.6px; text-anchor: end" transform="rotate(427.5,428.9,1953.1)">chr13</text>
<g id="highlight0">
</g>
<path d="M 542.509,2031.259 A1095.000,1095.000 0.000 0,1 447.125,1800.797 L 418.279,1809.038 A1125.000,1125.000 0.000 0,0 516.277,2045.814 Z " style="stroke-width: 2.0; stroke: rgb(170,170,170); fill: none; " />
<g id="highlight0">
</g>
<path d="M 445.299,1794.331 A1095.000,1095.000 0.000 0,1 406.929,1564.967 L 376.982,1566.747 A1125.000,1125.000 0.000 0,0 416.403,1802.395 Z " style="stroke-width: 2.0; stroke: rgb(170,170,170); fill: rgb(0,0,204); " />
<text x="354.5" y="1700.8" style="fill: rgb(0,0,0); font-size: 28.6px; text-anchor: end" transform="rotate(440.5,354.5,1700.8)">chr14</text>
<g id="highlight0">
<path d="M 419.414,1677.086 A1095.000,1095.000 0.000 0,1 419.414,1677.086 L 389.809,1681.937 A1125.000,1125.000 0.000 0,0 389.809,1681.937 Z " style="stroke: none;  fill: rgb(247,42,66); " />
<path d="M 415.318,1649.970 A1095.000,1095.000 0.000 0,1 415.318,1649.970 L 385.601,1654.079 A1125.000,1125.000 0.000 0,0 385.601,1654.079 Z " style="stroke: none;  fill: rgb(247,42,66); " />
</g>
<path d="M 445.299,1794.331 A1095.000,1095.000 0.000 0,1 406.929,1564.967 L 376.982,1566.747 A1125.000,1125.000 0.000 0,0 416.403,1802.395 Z " style="stroke-width: 2.0; stroke: rgb(170,170,170); fill: none; " />
<g id="highlight0">
</g>
<path d="M 406.551,1558.258 A1095.000,1095.000 0.000 0,1 417.295,1336.368 L 387.632,1331.885 A1125.000,1125.000 0.000 0,0 376.593,1559.855 Z " style="stroke-width: 2.0; stroke: rgb(170,170,170); fill: rgb(102,153,255); " />
<text x="360.9" y="1453.7" style="fill: rgb(0,0,0); font-size: 28.6px; text-anchor: end" transform="rotate(-87.2,360.9,1453.7)">chr15</text>
<g id="highlight0">
<path d="M 407.655,1423.796 A1095.000,1095.000 0.000 0,1 407.655,1423.796 L 377.728,1421.708 A1125.000,1125.000 0.000 0,0 377.728,1421.708 Z " style="stroke: none;  fill: rgb(247,42,66); " />
</g>
<path d="M 406.551,1558.258 A1095.000,1095.000 0.000 0,1 417.295,1336.368 L 387.632,1331.885 A1125.000,1125.000 0.000 0,0 376.593,1559.855 Z " style="stroke-width: 2.0; stroke: rgb(170,170,170); fill: none; " />
<g id="highlight0">
</g>
<path d="M 418.320,1329.728 A1095.000,1095.000 0.000 0,1 465.952,1139.765 L 437.622,1129.896 A1125.000,1125.000 0.000 0,0 388.685,1325.063 Z " style="stroke-width: 2.0; stroke: rgb(170,170,170); fill: rgb(153,204,255); " />
<text x="392.1" y="1231.3" style="fill: rgb(0,0,0); font-size: 28.6px; text-anchor: end" transform="rotate(-75.9,392.1,1231.3)">chr16</text>
<g id="highlight0">
<path d="M 430.874,1263.369 A1095.000,1095.000 0.000 0,1 430.874,1263.369 L 401.583,1256.886 A1125.000,1125.000 0.000 0,0 401.583,1256.886 Z " style="stroke: none;  fill: rgb(247,42,66); " />
</g>
<path d="M 418.320,1329.728 A1095.000,1095.000 0.000 0,1 465.952,1139.765 L 437.622,1129.896 A1125.000,1125.000 0.000 0,0 388.685,1325.063 Z " style="stroke-width: 2.0; stroke: rgb(170,170,170); fill: none; " />
<g id="highlight0">
</g>
<path d="M 468.182,1133.427 A1095.000,1095.000 0.000 0,1 540.256,972.823 L 513.961,958.379 A1125.000,1125.000 0.000 0,0 439.913,1123.384 Z " style="stroke-width: 2.0; stroke: rgb(170,170,170); fill: rgb(0,255,255); " />
<text x="456.3" y="1041.3" style="fill: rgb(0,0,0); font-size: 28.6px; text-anchor: end" transform="rotate(-65.8,456.3,1041.3)">chr17</text>
<g id="highlight0">
<path d="M 504.027,1044.958 A1095.000,1095.000 0.000 0,1 504.027,1044.958 L 476.740,1032.491 A1125.000,1125.000 0.000 0,0 476.740,1032.491 Z " style="stroke: none;  fill: rgb(247,42,66); " />
</g>
<path d="M 468.182,1133.427 A1095.000,1095.000 0.000 0,1 540.256,972.823 L 513.961,958.379 A1125.000,1125.000 0.000 0,0 439.913,1123.384 Z " style="stroke-width: 2.0; stroke: rgb(170,170,170); fill: none; " />
<g id="highlight0">
</g>
<path d="M 543.509,966.944 A1095.000,1095.000 0.000 0,1 637.105,825.881 L 613.464,807.412 A1125.000,1125.000 0.000 0,0 517.303,952.339 Z " style="stroke-width: 2.0; stroke: rgb(170,170,170); fill: rgb(204,255,255); " />
<text x="545.2" y="877.1" style="fill: rgb(0,0,0); font-size: 28.6px; text-anchor: end" transform="rotate(-56.4,545.2,877.1)">chr18</text>
<g id="highlight0">
<path d="M 589.543,891.648 A1095.000,1095.000 0.000 0,1 589.543,891.648 L 564.599,874.980 A1125.000,1125.000 0.000 0,0 564.599,874.980 Z " style="stroke: none;  fill: rgb(247,42,66); " />
</g>
<path d="M 543.509,966.944 A1095.000,1095.000 0.000 0,1 637.105,825.881 L 613.464,807.412 A1125.000,1125.000 0.000 0,0 517.303,952.339 Z " style="stroke-width: 2.0; stroke: rgb(170,170,170); fill: none; " />
<g id="highlight0">
</g>
<path d="M 641.257,820.599 A1095.000,1095.000 0.000 0,1 726.591,724.846 L 705.402,703.609 A1125.000,1125.000 0.000 0,0 617.730,801.985 Z " style="stroke-width: 2.0; stroke: rgb(170,170,170); fill: rgb(153,0,204); " />
<text x="643.1" y="748.2" style="fill: rgb(0,0,0); font-size: 28.6px; text-anchor: end" transform="rotate(-48.3,643.1,748.2)">chr19</text>
<g id="highlight0">
<path d="M 644.449,816.584 A1095.000,1095.000 0.000 0,1 644.449,816.584 L 621.009,797.860 A1125.000,1125.000 0.000 0,0 621.009,797.860 Z " style="stroke: none;  fill: rgb(247,42,66); " />
</g>
<path d="M 641.257,820.599 A1095.000,1095.000 0.000 0,1 726.591,724.846 L 705.402,703.609 A1125.000,1125.000 0.000 0,0 617.730,801.985 Z " style="stroke-width: 2.0; stroke: rgb(170,170,170); fill: none; " />
<g id="highlight0">
</g>
<path d="M 731.362,720.115 A1095.000,1095.000 0.000 0,1 834.524,630.422 L 816.291,606.598 A1125.000,1125.000 0.000 0,0 710.303,698.748 Z " style="stroke-width: 2.0; stroke: rgb(170,170,170); fill: rgb(204,51,255); " />
<text x="745.4" y="645.5" style="fill: rgb(0,0,0); font-size: 28.6px; text-anchor: end" transform="rotate(-41.0,745.4,645.5)">chr20</text>
<g id="highlight0">
<path d="M 736.274,715.304 A1095.000,1095.000 0.000 0,1 736.274,715.304 L 715.350,693.805 A1125.000,1125.000 0.000 0,0 715.350,693.805 Z " style="stroke: none;  fill: rgb(247,42,66); " />
</g>
<path d="M 731.362,720.115 A1095.000,1095.000 0.000 0,1 834.524,630.422 L 816.291,606.598 A1125.000,1125.000 0.000 0,0 710.303,698.748 Z " style="stroke-width: 2.0; stroke: rgb(170,170,170); fill: none; " />
<g id="highlight0">
</g>
<path d="M 839.872,626.355 A1095.000,1095.000 0.000 0,1 926.091,567.448 L 910.367,541.899 A1125.000,1125.000 0.000 0,0 821.786,602.419 Z " style="stroke-width: 2.0; stroke: rgb(170,170,170); fill: rgb(204,153,255); " />
<text x="849.6" y="563.7" style="fill: rgb(0,0,0); font-size: 28.6px; text-anchor: end" transform="rotate(-34.3,849.6,563.7)">chr21</text>
<g id="highlight0">
</g>
<path d="M 839.872,626.355 A1095.000,1095.000 0.000 0,1 926.091,567.448 L 910.367,541.899 A1125.000,1125.000 0.000 0,0 821.786,602.419 Z " style="stroke-width: 2.0; stroke: rgb(170,170,170); fill: none; " />
<g id="highlight0">
</g>
<path d="M 931.824,563.944 A1095.000,1095.000 0.000 0,1 1029.783,511.101 L 1016.900,484.008 A1125.000,1125.000 0.000 0,0 916.257,538.299 Z " style="stroke-width: 2.0; stroke: rgb(170,170,170); fill: rgb(102,102,102); " />
<text x="951.0" y="500.9" style="fill: rgb(0,0,0); font-size: 28.6px; text-anchor: end" transform="rotate(-28.3,951.0,500.9)">chr22</text>
<g id="highlight0">
</g>
<path d="M 931.824,563.944 A1095.000,1095.000 0.000 0,1 1029.783,511.101 L 1016.900,484.008 A1125.000,1125.000 0.000 0,0 916.257,538.299 Z " style="stroke-width: 2.0; stroke: rgb(170,170,170); fill: none; " />
<g id="highlight0">
</g>
<path d="M 1035.860,508.235 A1095.000,1095.000 0.000 0,1 1358.099,414.233 L 1354.211,384.486 A1125.000,1125.000 0.000 0,0 1023.143,481.063 Z " style="stroke-width: 2.0; stroke: rgb(170,170,170); fill: rgb(153,153,153); " />
<text x="1172.3" y="408.1" style="fill: rgb(0,0,0); font-size: 28.6px; text-anchor: end" transform="rotate(-16.3,1172.3,408.1)">chrX</text>
<g id="highlight0">
</g>
<path d="M 1035.860,508.235 A1095.000,1095.000 0.000 0,1 1358.099,414.233 L 1354.211,384.486 A1125.000,1125.000 0.000 0,0 1023.143,481.063 Z " style="stroke-width: 2.0; stroke: rgb(170,170,170); fill: none; " />
<g id="highlight0">
</g>
<path d="M 1364.763,413.383 A1095.000,1095.000 0.000 0,1 1493.281,405.021 L 1493.097,375.021 A1125.000,1125.000 0.000 0,0 1361.058,383.613 Z " style="stroke-width: 2.0; stroke: rgb(170,170,170); fill: rgb(204,204,204); " />
<text x="1417.2" y="363.0" style="fill: rgb(0,0,0); font-size: 28.6px; text-anchor: end" transform="rotate(-3.7,1417.2,363.0)">chrY</text>
<g id="highlight0">
</g>
<path d="M 1364.763,413.383 A1095.000,1095.000 0.000 0,1 1493.281,405.021 L 1493.097,375.021 A1125.000,1125.000 0.000 0,0 1361.058,383.613 Z " style="stroke-width: 2.0; stroke: rgb(170,170,170); fill: none; " />
</g>
<g id="plot0">
<g id="plot0-axis">
</g>
<text x="2682.1" y="1293.5" style="fill: rgb(247,42,66); font-size: 31.2px; text-anchor: start" transform="rotate(349.6,2682.1,1293.5)">TMEM175-GAK-DGKQ</text>
<text x="2341.8" y="644.8" style="fill: rgb(247,42,66); font-size: 31.2px; text-anchor: start" transform="rotate(314.1,2341.8,644.8)">ACMSD-TMEM163</text>
<text x="2605.1" y="1032.4" style="fill: rgb(247,42,66); font-size: 31.2px; text-anchor: start" transform="rotate(336.6,2605.1,1032.4)">KRT8P25-APOOP2</text>
<text x="2699.7" y="1473.4" style="fill: rgb(247,42,66); font-size: 31.2px; text-anchor: start" transform="rotate(358.2,2699.7,1473.4)">FAM47E-SCARB2</text>
<text x="1985.4" y="402.5" style="fill: rgb(247,42,66); font-size: 31.2px; text-anchor: start" transform="rotate(293.4,1985.4,402.5)">RAB7L1-NUCKS1</text>
<text x="326.2" y="1250.8" style="fill: rgb(247,42,66); font-size: 31.2px; text-anchor: end" transform="rotate(12.5,326.2,1250.8)">BCKDK-STX1B</text>
<text x="312.7" y="1673.9" style="fill: rgb(247,42,66); font-size: 31.2px; text-anchor: end" transform="rotate(352.1,312.7,1673.9)">TMEM229B</text>
<text x="1873.1" y="359.5" style="fill: rgb(247,42,66); font-size: 31.2px; text-anchor: start" transform="rotate(287.6,1873.1,359.5)">GBA-SYT11</text>
<text x="2462.8" y="2216.3" style="fill: rgb(247,42,66); font-size: 31.2px; text-anchor: start" transform="rotate(36.1,2462.8,2216.3)">HLA-DQB1</text>
<text x="659.3" y="2356.3" style="fill: rgb(247,42,66); font-size: 31.2px; text-anchor: end" transform="rotate(314.9,659.3,2356.3)">MIR4697</text>
<text x="472.1" y="2119.3" style="fill: rgb(247,42,66); font-size: 31.2px; text-anchor: end" transform="rotate(329.4,472.1,2119.3)">CCDC62</text>
<text x="2043.3" y="430.0" style="fill: rgb(247,42,66); font-size: 31.2px; text-anchor: start" transform="rotate(296.4,2043.3,430.0)">SIPA1L2</text>
<text x="655.6" y="647.3" style="fill: rgb(247,42,66); font-size: 31.2px; text-anchor: end" transform="rotate(45.8,655.6,647.3)">DDRGK1</text>
<text x="302.2" y="1426.9" style="fill: rgb(247,42,66); font-size: 31.2px; text-anchor: end" transform="rotate(4.0,302.2,1426.9)">VPS13C</text>
<text x="556.0" y="759.2" style="fill: rgb(247,42,66); font-size: 31.2px; text-anchor: end" transform="rotate(38.6,556.0,759.2)">SPPL2B</text>
<text x="2182.2" y="2487.2" style="fill: rgb(247,42,66); font-size: 31.2px; text-anchor: start" transform="rotate(54.9,2182.2,2487.2)">GPNMB</text>
<text x="2673.3" y="1248.0" style="fill: rgb(247,42,66); font-size: 31.2px; text-anchor: start" transform="rotate(347.4,2673.3,1248.0)">MCCC1</text>
<text x="948.9" y="2566.0" style="fill: rgb(247,42,66); font-size: 31.2px; text-anchor: end" transform="rotate(297.8,948.9,2566.0)">INPP5F</text>
<text x="586.5" y="2278.1" style="fill: rgb(247,42,66); font-size: 31.2px; text-anchor: end" transform="rotate(320.0,586.5,2278.1)">LRRK2</text>
<text x="2396.8" y="702.6" style="fill: rgb(247,42,66); font-size: 31.2px; text-anchor: start" transform="rotate(317.9,2396.8,702.6)">STK39</text>
<text x="404.6" y="1010.1" style="fill: rgb(247,42,66); font-size: 31.2px; text-anchor: end" transform="rotate(24.6,404.6,1010.1)">MAPT</text>
<text x="2700.0" y="1505.4" style="fill: rgb(247,42,66); font-size: 31.2px; text-anchor: start" transform="rotate(359.8,2700.0,1505.4)">SNCA</text>
<text x="749.2" y="2436.1" style="fill: rgb(247,42,66); font-size: 31.2px; text-anchor: end" transform="rotate(309.2,749.2,2436.1)">DLG2</text>
<text x="317.5" y="1704.3" style="fill: rgb(247,42,66); font-size: 31.2px; text-anchor: end" transform="rotate(350.7,317.5,1704.3)">GCH1</text>
<text x="2687.6" y="1327.8" style="fill: rgb(247,42,66); font-size: 31.2px; text-anchor: start" transform="rotate(351.3,2687.6,1327.8)">BST1</text>
<text x="496.9" y="841.3" style="fill: rgb(247,42,66); font-size: 31.2px; text-anchor: end" transform="rotate(33.8,496.9,841.3)">RIT2</text>
</g>
<g id="plot1">
<g id="plot1-axis">
</g>
<text x="2367.8" y="1134.4" style="fill: rgb(247,42,66); font-size: 31.2px; text-anchor: start" transform="rotate(336.6,2367.8,1134.4)">rs115185635</text>
<text x="1069.3" y="2337.5" style="fill: rgb(247,42,66); font-size: 31.2px; text-anchor: end" transform="rotate(297.8,1069.3,2337.5)">rs117896735</text>
<text x="694.1" y="1987.2" style="fill: rgb(247,42,66); font-size: 31.2px; text-anchor: end" transform="rotate(329.4,694.1,1987.2)">rs11060180</text>
<text x="1927.6" y="661.0" style="fill: rgb(247,42,66); font-size: 31.2px; text-anchor: start" transform="rotate(296.4,1927.6,661.0)">rs10797576</text>
<text x="2427.9" y="1339.1" style="fill: rgb(247,42,66); font-size: 31.2px; text-anchor: start" transform="rotate(349.6,2427.9,1339.1)">rs34311866</text>
<text x="784.4" y="2112.2" style="fill: rgb(247,42,66); font-size: 31.2px; text-anchor: end" transform="rotate(320.0,784.4,2112.2)">rs76904798</text>
<text x="572.3" y="1661.8" style="fill: rgb(247,42,66); font-size: 31.2px; text-anchor: end" transform="rotate(350.7,572.3,1661.8)">rs11158026</text>
<text x="639.5" y="1117.4" style="fill: rgb(247,42,66); font-size: 31.2px; text-anchor: end" transform="rotate(24.6,639.5,1117.4)">rs17649553</text>
<text x="758.3" y="919.8" style="fill: rgb(247,42,66); font-size: 31.2px; text-anchor: end" transform="rotate(38.6,758.3,919.8)">rs62120679</text>
<text x="2432.2" y="1366.4" style="fill: rgb(247,42,66); font-size: 31.2px; text-anchor: start" transform="rotate(351.3,2432.2,1366.4)">rs11724635</text>
<text x="711.7" y="984.8" style="fill: rgb(247,42,66); font-size: 31.2px; text-anchor: end" transform="rotate(33.8,711.7,984.8)">rs12456492</text>
<text x="1794.2" y="605.4" style="fill: rgb(247,42,66); font-size: 31.2px; text-anchor: start" transform="rotate(287.6,1794.2,605.4)">rs35749011</text>
<text x="2421.0" y="1303.7" style="fill: rgb(247,42,66); font-size: 31.2px; text-anchor: start" transform="rotate(347.4,2421.0,1303.7)">rs12637471</text>
<text x="836.3" y="831.9" style="fill: rgb(247,42,66); font-size: 31.2px; text-anchor: end" transform="rotate(45.8,836.3,831.9)">rs8118008</text>
<text x="2161.6" y="829.9" style="fill: rgb(247,42,66); font-size: 31.2px; text-anchor: start" transform="rotate(314.1,2161.6,829.9)">rs6430538</text>
<text x="2204.7" y="875.4" style="fill: rgb(247,42,66); font-size: 31.2px; text-anchor: start" transform="rotate(317.9,2204.7,875.4)">rs1474055</text>
<text x="2441.5" y="1480.6" style="fill: rgb(247,42,66); font-size: 31.2px; text-anchor: start" transform="rotate(358.2,2441.5,1480.6)">rs6812193</text>
<text x="2254.8" y="2063.1" style="fill: rgb(247,42,66); font-size: 31.2px; text-anchor: start" transform="rotate(36.1,2254.8,2063.1)">rs9275326</text>
<text x="568.5" y="1638.5" style="fill: rgb(247,42,66); font-size: 31.2px; text-anchor: end" transform="rotate(352.1,568.5,1638.5)">rs1555399</text>
<text x="911.9" y="2235.5" style="fill: rgb(247,42,66); font-size: 31.2px; text-anchor: end" transform="rotate(309.2,911.9,2235.5)">rs3793947</text>
<text x="560.0" y="1444.1" style="fill: rgb(247,42,66); font-size: 31.2px; text-anchor: end" transform="rotate(4.0,560.0,1444.1)">rs2414739</text>
<text x="1882.2" y="639.4" style="fill: rgb(247,42,66); font-size: 31.2px; text-anchor: start" transform="rotate(293.4,1882.2,639.4)">rs823118</text>
<text x="2441.7" y="1505.7" style="fill: rgb(247,42,66); font-size: 31.2px; text-anchor: start" transform="rotate(359.8,2441.7,1505.7)">rs356182</text>
<text x="841.8" y="2173.4" style="fill: rgb(247,42,66); font-size: 31.2px; text-anchor: end" transform="rotate(314.9,841.8,2173.4)">rs329648</text>
<text x="2034.2" y="2275.5" style="fill: rgb(247,42,66); font-size: 31.2px; text-anchor: start" transform="rotate(54.9,2034.2,2275.5)">rs199347</text>
<text x="578.5" y="1305.9" style="fill: rgb(247,42,66); font-size: 31.2px; text-anchor: end" transform="rotate(12.5,578.5,1305.9)">rs14235</text>
</g>
</svg>
